{"glyphs":{"0":{"ha":760,"x_min":29,"x_max":729,"o":"m 274 581 q 214 410 218 499 q 252 282 215 340 q 338 191 288 224 q 421 157 387 157 q 516 210 483 161 q 549 331 549 258 q 529 449 549 389 q 470 561 509 510 q 375 642 431 612 q 250 672 318 672 q 211 669 239 672 l 196 697 q 447 814 330 814 q 571 775 517 814 q 660 676 625 736 q 712 559 695 617 q 729 463 729 500 q 726 442 729 453 q 683 322 726 398 q 571 167 639 246 q 432 36 503 88 q 310 -17 361 -17 q 169 34 233 -17 q 68 160 105 84 q 29 313 31 237 q 256 603 50 477 l 274 581 z "},"1":{"ha":483,"x_min":38,"x_max":370,"o":"m 165 -40 q 171 268 171 170 q 165 498 171 368 q 149 595 165 570 q 100 621 133 621 q 52 612 90 621 l 38 649 q 265 806 255 806 q 307 817 293 817 q 370 726 366 817 l 364 87 l 165 -40 z "},"2":{"ha":646,"x_min":-22,"x_max":589,"o":"m 19 649 l 5 675 q 129 764 88 736 q 205 806 169 792 q 282 820 240 820 q 400 786 351 815 q 476 709 450 756 q 502 603 502 661 q 478 489 502 544 q 415 385 454 435 q 333 291 376 335 q 239 196 290 247 q 589 179 387 193 l 418 -22 q 225 8 332 8 q 97 0 173 8 q 5 -8 22 -8 l -22 40 q 268 345 121 150 q 313 478 313 411 q 286 571 313 529 q 213 636 260 613 q 105 660 165 660 q 19 649 59 660 z "},"3":{"ha":555,"x_min":28,"x_max":493,"o":"m 128 -82 l 97 -35 q 192 22 149 -8 q 267 97 236 52 q 299 199 299 141 q 269 290 297 251 q 192 349 240 329 q 85 370 144 370 l 82 407 q 256 578 256 465 q 241 619 256 598 q 198 655 226 641 q 136 669 171 669 q 52 649 97 669 l 28 678 q 175 782 113 748 q 288 817 237 817 q 363 798 327 817 q 424 747 400 780 q 447 675 447 714 q 318 489 447 582 q 448 408 402 462 q 493 285 493 355 q 407 103 493 189 q 345 48 378 74 q 273 -1 311 23 q 194 -46 235 -24 q 128 -82 153 -68 z "},"4":{"ha":760,"x_min":14,"x_max":738,"o":"m 372 339 q 375 532 375 410 l 555 654 l 546 350 q 738 367 660 355 l 606 199 l 543 190 l 540 38 l 353 -79 l 370 182 q 174 165 260 170 q 128 168 157 168 q 14 261 19 175 q 28 322 17 288 q 84 429 45 367 q 177 560 123 490 q 291 696 231 629 q 410 820 351 764 l 450 782 q 337 650 384 711 q 250 524 289 590 q 208 404 213 459 q 310 333 208 337 q 341 336 320 335 q 372 339 361 337 z "},"5":{"ha":558,"x_min":40,"x_max":640,"o":"m 131 -82 l 97 -38 q 299 201 299 71 q 266 300 299 253 q 175 386 233 348 q 40 453 116 425 l 274 833 q 472 806 410 808 q 640 825 560 810 q 589 738 618 787 q 523 653 559 688 q 445 615 487 618 q 225 649 359 615 l 196 603 q 492 307 492 479 q 415 128 492 223 q 353 65 389 95 q 278 9 317 36 q 199 -41 238 -18 q 131 -82 159 -65 z "},"6":{"ha":706,"x_min":35,"x_max":649,"o":"m 480 806 q 340 685 396 741 q 251 564 284 629 q 217 426 218 499 q 248 275 217 343 q 325 166 279 206 q 413 125 371 127 q 475 201 475 133 q 451 296 475 245 q 380 384 427 347 q 274 429 334 422 q 480 540 391 540 q 575 500 538 540 q 631 413 613 460 q 649 353 649 366 q 586 180 649 266 q 438 39 523 94 q 296 -17 352 -17 l 293 -17 q 166 31 225 -13 q 72 143 107 74 q 35 285 36 212 q 63 436 35 363 q 146 577 92 509 q 273 712 199 646 q 447 851 347 778 l 480 806 z "},"7":{"ha":526,"x_min":11,"x_max":589,"o":"m 52 -46 l 379 592 q 247 578 348 582 q 11 654 11 584 q 41 716 11 684 q 124 790 72 749 q 182 836 177 831 q 237 787 194 801 q 356 771 280 773 q 461 778 394 772 q 567 786 528 784 l 589 760 q 502 618 559 712 q 399 435 445 525 q 320 250 353 346 q 288 76 288 155 l 52 -46 z "},"8":{"ha":697,"x_min":38,"x_max":637,"o":"m 304 782 q 247 669 251 737 q 286 587 249 626 q 399 524 323 549 q 442 612 442 565 q 413 687 442 655 q 342 724 385 719 q 451 813 408 787 q 537 840 494 839 q 594 810 565 840 q 624 729 624 779 q 453 502 624 623 q 579 437 520 483 q 637 325 637 392 q 609 239 637 286 q 514 140 580 193 q 342 28 449 86 q 205 -14 290 -14 q 95 21 142 -14 q 40 125 48 56 q 38 149 40 142 q 58 226 39 188 q 121 306 76 263 q 244 399 165 349 q 107 474 149 435 q 65 561 65 513 q 77 621 65 595 q 113 672 89 648 q 178 731 136 697 q 276 811 219 765 l 304 782 m 301 376 q 231 239 235 311 q 270 151 233 185 q 356 117 307 117 q 403 131 379 117 q 443 171 427 145 q 458 225 458 196 q 301 376 458 322 z "},"9":{"ha":717,"x_min":48,"x_max":686,"o":"m 179 -82 l 146 -40 q 255 45 200 2 q 360 143 310 89 q 445 269 410 197 q 483 429 480 341 q 454 551 483 491 q 379 649 424 611 q 290 686 334 686 q 222 597 229 686 q 246 505 224 552 q 314 422 268 458 q 429 372 360 385 q 379 331 422 368 q 300 272 337 294 q 228 250 263 250 q 141 287 182 253 q 75 376 101 321 q 48 492 50 431 q 52 518 50 501 q 54 543 53 535 q 140 659 65 594 q 304 770 215 723 q 435 817 394 817 q 556 766 498 817 q 650 637 615 716 q 686 480 686 558 q 664 370 686 427 q 586 245 642 313 q 429 95 531 178 q 179 -82 327 12 z "},"­":{"ha":1042,"x_min":174,"x_max":868,"o":"m 174 0 l 174 868 l 868 868 l 868 0 l 174 0 m 846 22 l 846 846 l 196 846 l 196 22 l 846 22 z "},"¦":{"ha":436,"x_min":274,"x_max":418,"o":"m 274 375 l 418 375 l 418 -325 l 274 -325 l 274 375 m 274 435 l 274 1058 l 418 1058 l 418 435 l 274 435 z "},"²":{"ha":426,"x_min":-14,"x_max":385,"o":"m 14 708 l 3 724 q 113 791 77 773 q 185 808 149 808 q 291 771 255 806 q 328 681 328 735 q 311 612 328 646 q 269 548 295 578 q 215 492 243 518 q 154 436 187 466 q 385 426 268 434 l 274 307 q 142 322 224 322 q 61 319 110 322 q 3 315 13 315 l -14 345 q 176 526 89 414 q 203 603 203 558 q 166 682 203 651 q 68 714 130 714 q 14 708 50 714 z "},"³":{"ha":367,"x_min":17,"x_max":322,"o":"m 85 271 l 65 299 q 105 320 80 307 q 149 351 129 334 q 183 391 170 368 q 196 442 196 413 q 153 514 194 487 q 54 540 112 540 l 54 561 q 168 660 163 598 q 146 702 168 684 q 87 720 125 720 q 32 708 58 720 l 17 724 q 193 811 139 811 q 262 785 228 811 q 296 724 296 759 q 211 612 296 676 q 322 492 322 578 q 299 416 322 450 q 240 357 276 382 q 162 309 204 331 q 85 271 119 288 z "},"¹":{"ha":318,"x_min":25,"x_max":242,"o":"m 108 296 q 111 455 111 356 q 108 577 111 523 q 105 626 105 632 q 68 692 105 692 q 47 689 59 692 q 32 686 35 686 l 25 708 q 94 752 56 727 q 153 790 133 778 q 182 806 174 803 q 190 807 185 806 q 199 808 196 808 q 242 740 242 808 l 239 372 l 108 296 z "},"¼":{"ha":1014,"x_min":25,"x_max":999,"o":"m 768 190 q 771 293 771 231 l 885 364 l 879 196 q 999 203 951 201 l 914 111 q 877 105 888 105 q 873 22 873 79 l 754 -43 l 768 100 q 618 95 706 95 q 543 142 548 95 q 555 188 548 169 q 648 315 578 235 q 792 458 719 395 l 820 436 q 771 390 800 417 q 722 338 743 363 q 685 284 700 313 q 665 225 669 256 q 732 188 665 191 q 768 190 746 190 m 199 -62 l 74 -82 q 211 136 124 -5 q 374 403 299 277 q 522 653 450 529 q 643 865 595 778 l 765 885 q 606 647 686 772 q 456 403 526 522 q 318 162 386 284 q 199 -62 250 39 m 105 331 l 105 498 l 105 637 q 62 697 102 697 q 46 696 57 697 q 32 694 36 694 l 25 714 q 113 768 61 734 q 168 803 164 801 q 179 804 171 803 q 193 806 187 806 q 231 765 231 806 l 228 401 l 105 331 z "},"½":{"ha":942,"x_min":25,"x_max":903,"o":"m 105 331 l 105 498 l 105 637 q 62 697 102 697 q 46 696 57 697 q 32 694 36 694 l 25 714 q 113 768 61 734 q 168 803 164 801 q 179 804 171 803 q 193 806 187 806 q 231 765 231 806 l 228 401 l 105 331 m 199 -62 l 74 -82 q 211 136 124 -5 q 374 403 299 277 q 522 653 450 529 q 643 865 595 778 l 765 885 q 606 647 686 772 q 456 403 526 522 q 318 162 386 284 q 199 -62 250 39 m 549 361 l 537 376 q 638 440 601 422 q 708 458 674 458 q 807 424 766 458 q 849 333 849 389 q 833 268 849 300 q 792 208 817 236 q 741 158 768 180 q 681 108 714 135 q 903 100 807 108 l 797 -11 q 683 5 754 5 q 596 0 647 5 q 537 -5 545 -5 l 521 25 q 614 99 561 50 q 697 188 666 149 q 726 265 726 222 q 693 338 726 310 q 606 367 660 367 q 549 361 567 367 z "},"¾":{"ha":1061,"x_min":17,"x_max":1044,"o":"m 79 307 l 62 333 q 151 389 114 358 q 188 467 188 419 q 168 516 186 495 q 119 548 149 537 q 54 558 90 558 l 52 581 q 160 669 160 615 q 139 707 160 691 q 85 724 118 724 q 32 714 51 724 l 17 732 q 182 808 124 808 q 249 786 217 808 q 282 729 282 764 q 201 626 282 680 q 284 581 255 611 q 313 512 313 550 q 295 457 313 486 q 247 404 277 428 q 79 307 192 358 m 244 -62 l 119 -82 q 247 120 179 9 q 408 386 315 230 q 574 664 502 541 q 689 865 646 788 l 811 885 q 651 647 730 771 q 499 400 571 523 q 364 163 427 278 q 244 -62 301 49 m 814 190 q 817 296 817 231 l 930 364 l 925 196 q 1044 203 972 200 l 960 111 q 922 105 942 105 q 920 22 920 82 l 800 -43 l 814 100 q 665 95 751 95 q 589 144 594 95 q 603 190 593 166 q 693 315 624 238 q 839 458 762 392 l 865 436 q 820 393 850 421 q 769 339 791 365 q 731 284 747 313 q 711 225 715 256 q 779 188 711 191 q 814 190 792 190 z "},"Ð":{"ha":1042,"x_min":-29,"x_max":993,"o":"m 379 203 q 586 160 487 163 q 740 208 693 164 q 790 291 772 239 q 808 404 808 342 q 763 600 808 504 q 620 761 717 696 q 382 830 524 825 q 376 597 376 740 l 592 603 l 553 458 l 375 464 l 379 203 m -29 817 l 165 990 q 356 1004 273 1004 q 682 949 538 1004 q 906 789 825 895 q 993 537 988 683 q 961 388 993 466 q 871 239 930 311 q 729 105 812 166 q 546 5 646 45 q 426 -14 492 -14 q 358 -8 393 -14 q 302 3 322 -3 q 231 23 282 8 q 157 43 180 37 q 165 143 159 55 q 177 323 172 232 q 182 461 182 414 q 5 450 35 454 l 29 603 l 182 597 l 182 839 q -29 817 50 829 z "},"Ý":{"ha":1085,"x_min":3,"x_max":1170,"o":"m 22 843 l 3 871 q 108 942 51 901 q 190 998 165 983 q 236 1013 214 1013 q 301 979 271 1013 q 396 870 348 930 q 486 748 444 809 q 573 614 528 686 q 663 461 617 541 q 723 556 693 508 q 778 649 753 603 q 818 745 802 695 q 833 843 833 795 l 833 897 l 1153 1053 l 1170 1033 q 1045 859 1112 958 q 917 664 979 761 q 813 498 855 566 q 771 429 772 431 q 706 225 711 345 q 720 128 710 168 l 489 -29 q 492 201 492 60 q 439 388 491 284 q 316 588 387 492 q 181 753 244 684 q 105 828 118 823 q 87 840 106 828 q 52 851 68 851 q 22 843 36 851 m 694 1178 q 641 1142 671 1162 q 573 1103 610 1122 q 492 1067 536 1083 l 457 1150 q 620 1303 545 1211 l 694 1178 z "},"Þ":{"ha":871,"x_min":57,"x_max":857,"o":"m 151 -29 q 171 498 171 293 q 162 779 171 659 q 151 832 162 807 q 114 857 140 857 q 76 843 97 857 l 57 873 q 184 961 127 920 q 250 1007 241 1002 q 318 1030 295 1030 q 370 933 370 1030 l 370 825 l 410 825 q 690 776 592 825 q 821 665 789 726 q 857 549 853 604 q 755 364 857 436 q 478 256 653 292 l 464 285 q 632 478 632 347 q 565 602 625 554 q 372 651 505 649 q 367 461 372 564 q 371 343 369 399 q 374 228 373 287 q 375 114 375 168 l 151 -29 z "},"ð":{"ha":792,"x_min":46,"x_max":754,"o":"m 271 493 q 231 364 235 435 q 260 253 233 307 q 332 165 286 199 q 436 128 379 130 q 534 172 496 130 q 572 290 572 214 q 536 413 571 359 q 454 505 502 468 q 345 576 406 542 q 276 615 284 609 l 100 515 l 62 610 q 108 627 87 619 q 154 645 129 635 q 196 665 179 656 q 85 768 88 718 q 165 839 89 807 q 248 877 180 844 q 350 922 316 909 l 370 897 q 331 840 335 873 q 388 757 335 801 q 572 863 477 801 l 624 768 q 551 741 622 767 q 458 703 479 715 q 547 653 479 690 q 656 584 614 615 q 726 510 699 553 q 754 410 754 467 q 692 239 754 330 q 577 116 643 174 q 439 22 511 58 q 307 -14 368 -14 q 182 23 242 -14 q 84 122 121 60 q 46 258 47 185 q 70 358 46 315 q 137 433 95 400 q 253 510 179 466 l 271 493 z "},"ý":{"ha":882,"x_min":-5,"x_max":786,"o":"m 404 256 q 473 292 432 256 q 558 391 514 329 q 646 534 602 454 q 722 697 689 614 l 779 697 q 777 475 779 558 q 782 6 780 139 q 786 -262 783 -126 l 575 -322 q 589 162 589 -23 q 586 313 589 274 q 410 74 487 170 q 288 -14 347 -14 q 219 35 247 -14 q 191 122 204 62 q 159 288 178 181 q 128 442 139 396 q 96 526 112 503 q 60 550 81 550 q 14 535 41 550 l -5 567 q 95 633 36 592 q 185 693 154 675 q 239 711 216 711 q 304 626 289 711 q 322 499 305 620 q 357 319 339 379 q 404 256 375 258 m 593 879 q 539 844 570 864 q 471 804 509 824 q 390 768 434 784 l 356 851 q 518 1004 444 912 l 593 879 z "},"þ":{"ha":830,"x_min":-35,"x_max":757,"o":"m 108 -322 q 110 -181 108 -279 q 111 -3 111 -82 q 95 846 111 420 q 32 971 95 971 q -19 956 11 971 l -35 987 q 46 1042 -9 1005 q 128 1099 101 1080 q 165 1126 155 1118 q 236 1156 213 1156 q 288 1064 288 1156 l 288 1030 l 301 555 q 460 674 396 637 q 569 711 524 711 q 689 624 637 711 q 757 407 757 505 q 710 254 757 322 q 583 135 662 186 q 396 43 504 85 l 379 85 q 553 290 553 148 q 535 403 553 341 q 481 507 517 464 q 390 550 444 550 q 299 421 310 550 q 302 237 301 315 q 304 96 303 158 q 305 -73 304 33 q 307 -262 306 -180 l 108 -322 z "}," ":{"ha":811,"x_min":0,"x_max":0,"o":""},"!":{"ha":421,"x_min":100,"x_max":379,"o":"m 151 256 l 100 860 l 345 1030 l 319 367 l 151 256 m 379 89 q 264 8 299 29 q 201 -14 229 -14 q 137 17 163 -14 q 105 87 111 48 q 147 166 107 129 q 262 244 186 203 q 379 89 285 125 z "},"\"":{"ha":480,"x_min":54,"x_max":424,"o":"m 339 578 l 285 887 q 353 990 285 990 q 403 969 383 990 q 424 908 424 947 l 424 887 l 370 578 l 339 578 m 108 578 l 54 893 q 73 966 54 942 q 122 990 93 990 q 173 966 152 990 q 193 893 193 942 l 139 578 l 108 578 z "},"#":{"ha":1069,"x_min":29,"x_max":1036,"o":"m 179 711 l 382 711 l 483 993 l 626 993 l 529 711 l 700 711 l 800 993 l 947 993 l 846 711 l 1036 711 l 987 575 l 797 575 l 735 407 l 936 407 l 890 274 l 692 274 l 592 -5 l 445 -5 l 546 274 l 375 274 l 271 -5 l 128 -5 l 225 274 l 29 274 l 79 407 l 274 407 l 333 575 l 131 575 l 179 711 m 418 407 l 597 407 l 657 575 l 478 575 l 418 407 z "},"$":{"ha":732,"x_min":35,"x_max":678,"o":"m 480 632 q 396 717 433 703 l 390 496 q 678 307 678 452 q 641 203 678 257 q 542 100 605 149 q 401 14 479 52 l 410 -89 l 313 -146 l 315 -14 q 236 -17 288 -17 q 97 11 151 -17 q 35 82 43 38 q 50 123 35 104 q 96 163 64 141 q 201 231 127 185 q 318 100 231 135 l 318 345 q 189 379 241 361 q 106 419 137 397 q 62 469 75 441 q 48 535 48 497 q 71 616 50 579 q 127 684 91 653 q 211 741 163 715 q 315 789 258 766 l 310 879 l 410 939 l 399 817 l 469 817 q 574 802 533 817 q 629 743 616 787 q 596 695 629 715 q 480 632 564 674 m 318 515 l 318 724 q 246 682 273 713 q 217 612 219 651 q 244 554 219 581 q 318 515 270 528 m 399 92 q 477 127 447 96 q 507 199 507 157 q 478 272 507 238 q 393 325 449 307 l 399 92 z "},"%":{"ha":1253,"x_min":54,"x_max":1187,"o":"m 358 -62 l 233 -82 q 413 158 318 31 q 592 401 508 286 q 760 638 675 516 q 914 865 845 760 l 1033 885 q 791 558 910 722 q 558 233 672 395 q 358 -62 445 71 m 846 375 q 814 279 818 332 q 839 187 815 232 q 898 113 862 142 q 971 85 935 85 q 999 89 986 85 q 1045 138 1028 101 q 1061 222 1061 174 q 1041 326 1061 276 q 979 407 1020 376 q 879 439 938 439 q 825 432 857 439 l 800 467 q 987 529 899 529 q 1094 499 1048 529 q 1164 419 1140 470 q 1187 310 1187 369 q 1146 158 1187 234 q 1036 34 1105 83 q 890 -14 966 -14 q 787 16 836 -14 q 711 95 739 46 q 683 199 683 143 q 825 404 688 331 l 846 375 m 217 665 q 188 564 192 623 q 211 470 189 516 q 269 394 234 424 q 342 365 304 365 q 367 370 355 365 q 414 414 396 377 q 432 502 432 451 q 412 607 432 555 q 350 691 391 658 q 249 724 308 724 q 196 717 228 724 l 165 746 q 353 811 262 811 q 461 780 414 811 q 533 698 508 750 q 558 586 558 647 q 516 436 558 508 q 405 319 474 365 q 258 265 336 273 q 158 297 205 267 q 82 378 110 328 q 54 483 54 428 q 188 686 59 614 l 217 665 z "},"&":{"ha":1213,"x_min":142,"x_max":1256,"o":"m 751 594 l 751 615 l 968 763 l 963 597 l 1244 615 l 1256 592 l 1082 439 l 956 445 l 956 404 q 936 312 956 350 q 882 233 917 274 q 760 106 820 161 q 633 17 701 52 q 492 -17 565 -17 q 305 27 384 -7 q 185 113 227 62 q 142 225 143 165 q 189 346 144 287 q 322 455 234 406 q 151 640 157 527 q 228 793 151 718 q 420 917 305 869 q 635 965 535 965 q 757 942 705 965 q 811 879 811 910 q 786 836 811 857 q 709 783 761 814 q 643 743 657 753 q 475 851 584 851 q 384 821 420 851 q 342 738 348 791 q 394 637 344 680 q 549 594 444 594 l 751 594 m 760 445 q 675 447 734 445 q 583 450 616 450 q 466 441 517 450 q 383 410 415 433 q 345 347 350 387 q 385 240 345 284 q 487 173 425 196 q 612 149 549 150 q 735 188 698 153 q 763 345 763 216 q 761 392 763 359 q 760 445 760 425 z "},"'":{"ha":379,"x_min":105,"x_max":342,"o":"m 139 714 l 114 757 q 174 833 174 790 q 105 944 174 886 l 256 1030 q 322 949 301 978 q 342 885 342 920 q 265 783 342 828 l 139 714 z "},"(":{"ha":442,"x_min":95,"x_max":469,"o":"m 322 -247 q 194 -10 244 -132 q 120 234 144 112 q 95 475 96 356 q 231 1044 99 788 l 435 1156 q 358 994 391 1074 q 305 837 326 913 q 272 686 283 761 q 261 537 261 610 q 315 212 262 370 q 469 -97 369 53 l 322 -247 z "},")":{"ha":442,"x_min":-25,"x_max":345,"o":"m 211 -133 l 11 -250 q 138 69 96 -86 q 179 375 179 225 q 166 542 179 461 q 128 704 154 624 q 63 862 102 784 q -25 1010 23 940 l 119 1158 q 283 835 221 1020 q 345 442 345 650 q 331 255 345 349 q 287 61 317 161 q 211 -133 257 -38 z "},"*":{"ha":694,"x_min":208,"x_max":564,"o":"m 342 896 q 307 1019 307 946 l 435 1019 q 404 920 409 971 q 407 900 407 914 q 502 982 439 954 l 564 871 l 543 871 q 453 846 495 871 q 510 820 489 834 q 553 773 530 806 l 464 686 q 399 794 446 747 q 367 667 399 726 l 250 735 q 339 825 308 765 q 274 811 317 817 q 208 830 249 814 l 242 956 q 264 930 254 941 q 293 910 275 920 q 342 896 312 901 z "},"+":{"ha":1156,"x_min":171,"x_max":985,"o":"m 649 828 l 649 483 l 985 483 l 985 347 l 649 347 l 649 0 l 510 0 l 510 347 l 171 347 l 171 483 l 510 483 l 510 828 l 649 828 z "},",":{"ha":379,"x_min":52,"x_max":307,"o":"m 52 136 l 199 244 q 307 108 307 168 q 278 41 307 74 q 205 -22 248 8 q 111 -89 162 -53 l 87 -57 q 139 29 139 -9 q 52 136 139 82 z "},"-":{"ha":651,"x_min":62,"x_max":610,"o":"m 62 268 l 208 439 q 379 413 254 418 q 500 419 419 414 q 610 424 581 424 l 464 258 q 268 274 388 274 q 62 268 193 274 z "},".":{"ha":379,"x_min":52,"x_max":322,"o":"m 322 89 q 262 40 290 63 q 204 0 233 17 q 146 -17 174 -17 q 83 17 107 -17 q 52 92 59 51 q 87 161 53 132 q 205 244 121 190 q 322 89 229 125 z "},"/":{"ha":549,"x_min":3,"x_max":594,"o":"m 3 -128 q 124 138 61 -12 q 250 457 186 288 q 375 807 313 626 q 486 1147 437 987 l 594 1156 q 465 826 520 969 q 354 534 409 682 q 240 220 299 385 q 125 -114 181 54 l 3 -128 z "},":":{"ha":413,"x_min":65,"x_max":336,"o":"m 336 558 q 283 518 320 548 q 218 470 245 487 q 162 453 191 454 q 97 488 123 457 q 65 561 72 519 q 78 601 66 582 q 111 638 90 620 q 163 677 132 656 q 219 714 195 697 q 336 558 245 595 m 336 89 q 225 9 262 32 q 160 -14 187 -14 q 98 20 126 -14 q 65 89 70 54 q 90 148 67 121 q 151 199 114 175 q 219 244 187 223 q 259 151 231 195 q 336 89 287 107 z "},";":{"ha":413,"x_min":68,"x_max":339,"o":"m 339 558 q 293 522 333 554 q 222 471 252 489 q 162 453 192 454 q 99 488 123 457 q 68 561 75 518 q 89 613 70 589 q 131 653 108 637 q 222 714 155 670 q 339 558 246 594 m 68 136 l 214 244 q 288 180 255 216 q 322 108 320 143 q 293 41 322 74 q 222 -22 264 8 q 128 -89 179 -53 l 103 -57 q 154 29 154 -12 q 68 136 154 83 z "},"<":{"ha":1156,"x_min":179,"x_max":976,"o":"m 976 808 l 976 663 l 372 415 l 976 165 l 976 19 l 179 347 l 179 483 l 976 808 z "},"=":{"ha":1156,"x_min":171,"x_max":985,"o":"m 171 493 l 171 626 l 985 626 l 985 493 l 171 493 m 171 336 l 985 336 l 985 201 l 171 201 l 171 336 z "},">":{"ha":1156,"x_min":179,"x_max":976,"o":"m 179 19 l 179 165 l 789 415 l 179 663 l 179 808 l 976 483 l 976 347 l 179 19 z "},"?":{"ha":665,"x_min":0,"x_max":651,"o":"m 450 89 q 397 51 434 81 q 331 3 359 20 q 274 -14 302 -14 q 209 18 235 -14 q 176 92 184 49 q 190 132 177 113 q 222 167 202 151 q 271 203 242 183 q 333 244 301 223 q 450 89 358 120 m 271 296 l 231 339 q 371 472 316 401 q 426 633 426 543 q 424 672 426 645 q 342 816 410 770 q 179 863 275 863 q 29 836 111 863 l 0 865 q 88 934 21 880 q 205 1010 155 988 q 322 1033 254 1033 q 441 1012 385 1032 q 544 957 498 992 q 618 873 589 922 q 651 765 646 824 q 614 621 651 690 q 519 494 576 551 q 420 405 462 437 q 271 296 378 373 z "},"@":{"ha":1370,"x_min":89,"x_max":1283,"o":"m 1178 -38 q 1021 -128 1097 -94 q 870 -176 945 -161 q 714 -190 795 -190 l 649 -190 q 350 -100 477 -178 q 156 102 223 -22 q 89 370 89 226 q 142 602 93 491 q 279 800 191 713 q 489 937 368 887 q 751 987 610 986 q 970 953 872 987 q 1138 856 1068 918 q 1245 707 1207 793 q 1283 521 1282 622 q 1251 340 1283 421 q 1168 201 1219 258 q 1060 113 1117 143 q 956 79 1003 82 q 840 121 879 79 q 797 219 802 162 q 704 115 752 148 q 592 82 655 82 q 480 112 525 82 q 414 194 436 143 q 390 307 392 244 q 393 340 392 318 q 396 372 394 362 q 468 538 411 466 q 599 650 525 611 q 740 689 673 689 q 885 564 853 685 l 917 675 l 1047 675 l 928 256 q 917 192 917 221 q 971 128 919 130 q 1085 180 1022 130 q 1193 320 1148 230 q 1238 521 1238 410 q 1194 710 1236 629 q 1084 842 1152 791 q 936 917 1017 893 q 773 942 855 942 q 485 863 615 942 q 278 651 354 785 q 199 356 202 516 q 231 168 199 258 q 330 8 264 78 q 495 -104 395 -63 q 722 -144 594 -144 q 1150 -3 930 -144 l 1178 -38 m 763 643 q 660 579 713 643 q 572 422 607 514 q 535 250 536 329 q 589 136 539 157 q 618 129 605 129 q 720 193 669 129 q 805 350 772 258 q 839 518 839 443 q 763 643 839 639 z "},"A":{"ha":1010,"x_min":-68,"x_max":1047,"o":"m -68 -17 q 76 246 12 121 q 194 493 141 372 q 286 722 247 614 q 358 933 326 830 l 540 1019 l 581 1007 q 630 858 596 954 q 714 637 664 762 q 818 401 765 511 q 922 217 871 290 q 1007 139 965 142 q 1030 146 1019 144 l 1047 114 q 978 69 1029 104 q 893 14 927 34 q 840 -5 860 -5 q 780 41 817 -5 q 709 146 743 88 q 649 256 675 204 q 410 250 584 256 q 236 256 283 256 q 199 92 207 179 l -68 -17 m 282 382 q 360 379 302 380 q 445 376 418 377 q 592 379 510 379 q 439 773 512 563 q 384 643 407 699 q 335 522 360 587 q 282 382 309 457 z "},"B":{"ha":963,"x_min":-28,"x_max":911,"o":"m -28 814 l 162 985 q 426 1004 323 1004 q 717 950 613 1004 q 814 869 780 918 q 849 765 849 820 q 822 675 849 718 q 746 603 796 632 q 810 560 770 593 q 880 479 850 527 q 911 375 911 430 q 777 165 911 264 q 579 30 662 69 q 418 -8 496 -8 q 343 -2 381 -8 q 236 22 306 5 q 144 43 165 39 q 171 575 171 258 q 170 708 171 623 q 168 830 168 793 l -28 814 m 370 201 q 471 166 410 182 q 581 149 531 151 q 722 274 722 165 q 693 372 722 323 q 608 455 665 420 q 475 496 552 489 l 475 526 q 565 556 527 533 q 623 612 603 579 q 643 681 643 645 q 616 758 643 722 q 536 816 590 794 q 404 838 483 838 q 367 836 379 838 q 365 681 367 785 q 364 524 364 576 q 370 201 364 412 z "},"C":{"ha":865,"x_min":74,"x_max":851,"o":"m 851 154 q 797 110 833 139 q 716 53 760 81 q 618 6 671 25 q 510 -14 564 -14 q 289 70 389 0 q 131 249 189 139 q 74 489 74 359 q 137 720 77 619 q 293 887 198 821 q 491 987 388 954 q 683 1019 594 1019 q 800 999 758 1019 q 843 942 843 979 q 814 896 843 921 q 731 832 786 870 q 669 789 676 794 q 480 887 588 887 q 379 857 425 887 q 304 767 332 826 q 276 626 276 708 q 309 457 276 540 q 403 307 342 374 q 544 202 464 240 q 714 162 624 163 q 836 182 779 167 l 851 154 z "},"D":{"ha":1033,"x_min":-35,"x_max":987,"o":"m 375 203 q 586 160 495 163 q 732 205 687 164 q 800 399 800 269 q 753 598 800 500 q 610 761 707 696 q 372 830 513 827 q 370 572 372 663 q 372 388 371 511 q 375 203 374 264 m -35 817 l 157 987 q 353 1001 264 1001 q 671 947 529 1001 q 897 788 813 893 q 987 535 981 683 q 958 399 987 473 q 872 252 929 326 q 732 115 815 179 q 546 8 648 51 q 426 -11 495 -11 q 304 3 366 -11 q 154 43 241 17 q 176 632 176 395 q 175 741 176 672 q 174 839 174 810 l -35 817 z "},"E":{"ha":920,"x_min":22,"x_max":942,"o":"m 196 8 q 217 370 217 152 l 217 442 l 29 453 l 217 600 l 217 840 l 22 860 l 233 1004 q 521 993 416 993 q 906 1007 648 993 q 846 951 895 998 q 761 876 798 904 q 694 839 725 847 q 550 825 665 830 q 418 830 447 830 l 418 606 l 800 615 q 754 566 794 610 q 681 493 714 522 q 621 455 648 464 q 475 439 588 445 q 415 442 453 442 l 415 179 q 519 175 461 177 q 629 171 577 173 q 942 188 742 174 l 773 3 q 421 11 561 11 q 311 10 385 11 q 196 8 237 8 z "},"F":{"ha":806,"x_min":19,"x_max":903,"o":"m 196 -29 q 214 432 207 33 l 35 445 l 214 592 l 208 820 q 19 839 183 826 q 225 996 135 923 q 498 974 350 978 q 903 1004 693 977 q 789 889 837 934 q 700 828 742 844 q 540 803 649 808 q 410 808 451 808 l 410 594 l 792 618 q 696 504 731 541 q 626 450 662 467 q 483 424 577 429 q 410 426 455 426 l 413 103 l 196 -29 z "},"G":{"ha":1022,"x_min":57,"x_max":976,"o":"m 608 478 q 688 537 651 510 q 759 581 724 564 q 830 600 794 598 q 898 577 864 600 q 954 512 932 554 q 976 415 976 469 q 849 162 976 290 q 751 84 813 126 q 618 14 688 43 q 493 -17 549 -15 q 346 21 423 -17 q 204 128 270 59 q 98 287 138 197 q 57 478 58 378 q 104 678 57 581 q 236 851 152 775 q 429 971 320 927 q 654 1017 537 1015 q 803 998 751 1017 q 854 944 854 979 q 806 872 854 910 q 667 800 759 834 q 586 874 634 848 q 486 900 537 900 q 368 859 417 900 q 293 754 319 818 q 262 624 267 690 q 314 404 264 517 q 453 216 364 292 q 649 136 541 140 q 723 155 690 136 q 774 208 756 175 q 792 279 792 241 q 746 399 792 344 q 608 478 700 454 z "},"H":{"ha":1076,"x_min":17,"x_max":1014,"o":"m 165 -29 q 176 455 176 354 l 17 453 l 17 478 l 176 606 q 175 708 176 649 q 159 806 173 766 q 111 846 145 846 q 68 833 98 846 l 48 860 q 162 940 92 889 q 266 1011 233 992 q 319 1030 298 1030 q 367 922 367 1030 l 372 615 l 820 615 q 808 812 820 761 q 768 863 797 863 q 735 854 752 863 l 722 887 q 886 994 827 958 q 965 1030 944 1030 q 991 1018 982 1029 q 1004 979 1000 1006 q 1010 891 1008 952 q 1014 773 1012 830 l 1013 117 l 808 -29 l 820 461 l 372 461 l 372 117 l 165 -29 z "},"I":{"ha":455,"x_min":52,"x_max":367,"o":"m 154 -29 q 159 104 155 -7 q 166 292 164 216 q 168 426 168 369 q 154 738 168 567 q 141 830 152 804 q 108 857 130 857 q 68 843 102 857 l 52 873 q 154 942 87 895 q 254 1010 220 990 q 313 1030 288 1030 q 352 1003 339 1030 q 364 908 364 975 l 367 108 l 154 -29 z "},"J":{"ha":461,"x_min":48,"x_max":372,"o":"m 92 -299 l 62 -276 q 124 -166 101 -227 q 158 -44 147 -106 q 171 81 168 19 q 174 222 174 144 l 174 271 q 169 482 174 378 q 160 650 164 587 q 151 760 155 713 q 138 838 143 818 q 108 857 132 857 q 65 843 86 857 l 48 873 q 149 940 81 893 q 252 1008 217 987 q 313 1028 287 1028 q 361 928 361 1028 q 358 697 361 777 q 361 508 359 603 q 363 335 362 413 q 367 129 364 256 q 372 -60 370 2 q 282 -129 329 -91 q 184 -212 236 -166 q 92 -299 133 -258 z "},"K":{"ha":963,"x_min":52,"x_max":1007,"o":"m 396 532 q 507 610 443 563 q 627 707 572 658 q 697 789 682 756 q 700 806 700 794 q 685 840 700 824 q 649 868 670 857 q 604 892 629 880 q 561 911 578 903 l 743 1030 q 914 911 914 981 q 910 895 914 906 q 906 885 906 885 q 788 759 880 838 q 592 600 696 680 q 640 530 610 574 q 715 417 669 486 q 793 304 761 349 q 863 211 825 259 q 881 188 867 206 q 907 159 895 170 q 931 141 918 148 q 957 133 943 134 q 972 136 962 135 q 987 139 981 137 l 1007 114 q 932 63 983 98 q 846 7 882 27 q 786 -14 809 -14 q 740 8 761 -12 q 694 71 719 28 q 645 146 692 75 q 557 283 599 217 q 466 424 514 350 q 396 532 419 497 m 154 -29 q 159 98 155 -15 q 166 289 164 211 q 168 426 168 367 q 154 720 168 560 q 145 822 154 786 q 108 857 136 857 q 68 843 95 857 l 52 873 q 181 961 94 901 q 282 1025 268 1021 q 315 1030 304 1030 q 347 1018 336 1030 q 361 982 357 1005 q 365 927 365 960 q 367 843 366 894 l 367 108 l 154 -29 z "},"L":{"ha":857,"x_min":52,"x_max":863,"o":"m 162 0 q 171 447 171 188 l 171 692 q 161 769 166 732 q 143 829 156 806 q 105 851 131 851 q 62 839 93 851 l 52 868 q 232 994 175 958 q 322 1030 289 1030 q 372 960 372 1030 l 372 176 q 458 174 429 176 q 658 182 567 176 q 863 201 748 188 l 667 0 q 424 8 558 8 q 162 0 291 8 z "},"M":{"ha":1480,"x_min":92,"x_max":1480,"o":"m 92 -29 q 156 306 123 145 q 231 657 189 467 q 189 732 220 677 q 144 818 158 786 q 128 873 129 849 q 133 896 133 890 q 189 954 143 920 q 322 1044 235 987 q 379 851 322 974 q 525 601 436 729 q 703 387 614 472 q 851 301 793 302 q 853 303 853 303 q 854 304 854 304 q 987 389 927 307 q 1082 593 1048 471 q 1117 828 1117 715 q 1115 877 1117 861 l 1421 1050 l 1313 783 q 1352 543 1330 650 q 1404 333 1374 436 q 1480 114 1435 231 l 1272 -29 q 1142 502 1192 239 q 1036 317 1095 409 q 905 159 977 226 q 763 92 832 92 q 648 136 708 94 q 536 237 589 178 q 432 366 483 296 q 364 461 381 437 q 336 133 343 286 l 92 -29 z "},"N":{"ha":1201,"x_min":-17,"x_max":1118,"o":"m 193 -29 q 208 150 202 54 q 220 356 215 246 q 229 576 225 466 q 236 754 233 687 q 156 826 207 788 q 48 863 105 863 q 0 851 23 863 l -17 885 q 96 961 45 924 q 164 1007 146 998 q 208 1019 182 1017 q 345 943 246 1019 q 565 752 444 866 q 791 529 687 637 q 936 367 894 421 q 938 443 936 376 q 939 561 939 510 q 896 900 939 769 l 1118 1053 q 1110 853 1116 992 q 1099 568 1105 713 q 1091 311 1094 423 q 1087 97 1088 198 l 914 -25 q 840 141 898 51 q 704 317 782 231 q 559 466 627 403 q 393 621 492 530 q 388 432 393 571 q 413 114 393 221 l 193 -29 z "},"O":{"ha":1039,"x_min":57,"x_max":1001,"o":"m 336 746 q 268 543 273 655 q 301 390 269 465 q 382 256 332 315 q 489 164 432 197 q 597 131 547 131 q 698 174 657 136 q 759 273 739 212 q 779 407 779 334 q 736 627 779 518 q 608 806 692 736 q 410 877 524 877 q 293 857 350 877 l 268 890 q 603 1017 446 1017 q 815 948 724 1017 q 953 774 905 880 q 1001 564 1001 668 q 947 373 997 475 q 813 182 897 271 q 627 38 729 92 q 424 -17 525 -17 q 278 22 346 -14 q 161 116 210 58 q 84 247 111 174 q 57 394 57 320 q 60 435 57 407 q 98 562 67 505 q 178 666 129 618 q 310 777 228 715 l 336 746 z "},"P":{"ha":871,"x_min":-28,"x_max":857,"o":"m 151 -29 q 171 553 171 246 q 168 830 171 743 q -28 817 66 830 l 154 990 q 396 1007 295 1007 q 811 863 708 1007 q 857 726 857 797 q 801 591 857 652 q 656 490 744 530 q 478 436 568 450 l 464 469 q 632 663 632 533 q 372 833 617 826 q 370 608 372 683 q 374 338 372 444 q 375 114 375 233 l 151 -29 z "},"Q":{"ha":1039,"x_min":60,"x_max":1099,"o":"m 1096 -139 q 930 -151 963 -151 q 857 -144 883 -151 q 779 -117 832 -137 q 710 -61 741 -92 q 659 -3 680 -30 q 626 40 639 24 q 429 -14 525 -14 q 249 36 332 -14 q 114 176 165 86 q 60 375 64 265 q 120 592 60 499 q 310 777 181 685 l 336 746 q 274 549 278 664 q 321 352 275 449 q 443 196 368 256 q 600 136 518 136 q 733 218 688 142 q 779 407 779 294 q 755 573 779 489 q 683 724 730 656 q 567 835 636 793 q 413 877 498 877 q 293 857 350 877 l 268 893 q 445 985 363 951 q 626 1019 527 1019 q 772 981 704 1017 q 889 884 840 945 q 966 744 939 823 q 993 578 993 665 q 814 182 993 346 q 882 77 841 141 q 979 -39 924 14 q 1099 -105 1034 -92 l 1096 -139 z "},"R":{"ha":990,"x_min":-28,"x_max":1014,"o":"m 157 -28 q 176 564 176 438 q 168 839 176 708 l -28 830 l 144 996 q 439 1017 301 1017 q 782 939 696 1017 q 865 768 865 864 q 817 634 865 698 q 675 526 768 570 q 710 472 685 514 q 765 384 736 431 q 828 288 795 336 q 890 201 861 239 q 935 151 918 167 q 971 133 951 135 q 999 144 987 137 l 1014 111 q 953 71 1006 107 q 860 13 900 35 q 797 -8 820 -8 q 748 14 771 -8 q 694 89 725 37 q 455 493 595 253 q 657 694 657 564 q 587 812 651 775 q 432 849 522 849 q 402 847 419 849 q 376 846 384 846 q 370 555 375 736 q 382 119 373 396 l 157 -28 z "},"S":{"ha":911,"x_min":95,"x_max":893,"o":"m 646 789 q 569 872 618 843 q 467 900 519 900 q 396 885 428 900 q 344 842 363 870 q 325 777 325 814 q 393 672 325 706 q 604 601 460 639 q 820 519 747 563 q 893 388 893 475 q 840 252 890 324 q 710 119 791 181 q 538 20 630 57 q 364 -17 447 -17 q 201 12 296 -17 q 95 105 105 41 q 149 193 95 152 q 301 293 202 235 q 394 170 330 212 q 529 125 458 127 q 636 160 594 127 q 678 253 678 194 q 607 382 676 345 q 396 453 537 420 q 186 526 255 485 q 117 665 117 568 q 174 812 117 745 q 308 923 232 879 q 450 990 385 967 q 618 1017 523 1017 q 766 991 706 1017 q 830 920 826 965 q 785 866 830 894 q 646 789 739 838 z "},"T":{"ha":936,"x_min":-17,"x_max":1047,"o":"m -17 854 l 205 1017 q 629 999 452 1003 q 1047 1022 813 1002 q 971 949 1021 999 q 895 876 922 899 q 840 843 869 853 q 756 826 803 829 q 600 820 710 822 q 594 583 600 800 q 612 142 601 302 l 356 -29 q 372 155 367 70 q 382 335 378 241 q 385 515 385 428 q 379 825 385 621 q -17 854 175 834 z "},"U":{"ha":1161,"x_min":54,"x_max":1204,"o":"m 304 1022 q 300 967 300 998 q 336 740 300 874 q 430 474 371 605 q 555 258 489 342 q 681 174 622 175 q 683 176 682 175 q 683 176 683 176 q 776 220 732 176 q 853 337 820 263 q 905 499 887 410 q 922 675 922 587 q 903 843 922 774 l 1204 1028 q 1121 709 1183 891 q 972 361 1058 527 q 790 85 886 195 q 606 -32 694 -25 q 457 35 534 -32 q 306 215 380 102 q 171 465 232 329 q 68 735 109 601 q 54 806 60 759 q 76 878 55 848 q 128 927 98 908 q 214 973 159 945 q 304 1022 269 1000 z "},"V":{"ha":1069,"x_min":-25,"x_max":1144,"o":"m -8 843 l -25 877 q 73 938 14 898 q 160 994 132 978 q 214 1010 189 1010 q 276 971 251 1010 q 442 665 336 882 q 615 276 547 447 q 683 432 650 355 q 743 583 716 508 q 786 733 769 657 q 803 877 803 808 l 1144 1044 q 1010 805 1063 903 q 925 646 957 707 q 846 492 894 586 q 754 313 799 399 q 689 128 692 195 q 694 82 694 95 l 496 -29 q 392 225 438 117 q 302 425 345 334 q 212 607 260 515 q 114 782 163 698 q 77 834 96 814 q 29 854 59 854 q -8 843 19 854 z "},"W":{"ha":1739,"x_min":-25,"x_max":1864,"o":"m 1864 1050 q 1722 814 1793 941 q 1595 577 1651 687 q 1499 380 1540 467 q 1432 236 1458 292 q 1394 119 1399 172 q 1400 97 1400 104 l 1204 -29 q 1123 200 1174 76 q 1015 439 1071 325 q 906 654 959 554 q 770 404 820 498 q 686 228 720 310 q 654 108 657 164 q 657 76 657 97 l 461 -29 q 386 179 430 70 q 293 395 343 289 q 190 603 244 500 q 74 814 136 706 q 11 868 39 868 q -14 863 3 868 l -25 897 q 54 955 -4 911 q 139 1013 113 998 q 185 1028 165 1028 q 231 1001 207 1028 q 404 693 294 913 q 592 293 515 474 q 676 476 639 389 q 739 634 714 562 q 776 767 763 706 q 789 877 789 828 l 999 999 q 1329 296 1237 532 q 1372 383 1333 305 q 1444 542 1410 461 q 1504 715 1478 622 q 1531 887 1530 807 l 1864 1050 z "},"X":{"ha":999,"x_min":-14,"x_max":987,"o":"m 0 -46 l -14 -19 q 120 136 53 57 q 256 302 187 215 q 390 480 325 390 q 292 620 326 572 q 216 722 258 668 q 136 820 175 776 q 82 849 111 849 q 38 833 60 849 l 19 863 q 133 945 90 913 q 207 994 177 977 q 256 1010 237 1010 q 296 985 279 1010 q 406 831 326 941 q 529 654 486 721 q 560 699 541 671 q 597 758 579 727 q 625 824 614 789 q 640 897 637 859 l 971 1044 l 987 1017 q 819 826 893 914 q 597 561 744 738 q 871 193 782 289 q 920 160 896 163 q 963 182 946 164 l 979 154 q 901 93 962 142 q 808 22 841 45 q 754 -5 774 -2 q 679 50 723 -5 q 558 227 635 104 q 455 385 481 349 q 367 242 395 299 q 336 131 338 186 q 339 103 339 119 l 0 -46 z "},"Y":{"ha":1085,"x_min":3,"x_max":1170,"o":"m 22 843 l 3 871 q 108 942 51 901 q 190 998 165 983 q 236 1013 214 1013 q 301 979 271 1013 q 396 870 348 930 q 486 748 444 809 q 573 614 528 686 q 663 461 617 541 q 723 556 693 508 q 778 649 753 603 q 818 745 802 695 q 833 843 833 795 l 833 897 l 1153 1053 l 1170 1033 q 1045 859 1112 958 q 917 664 979 761 q 813 498 855 566 q 771 429 772 431 q 706 225 711 345 q 720 128 710 168 l 489 -29 q 492 201 492 60 q 439 388 491 284 q 316 588 387 492 q 181 753 244 684 q 105 828 118 823 q 87 840 106 828 q 52 851 68 851 q 22 843 36 851 z "},"Z":{"ha":836,"x_min":32,"x_max":833,"o":"m 239 1036 l 268 1022 q 262 1007 268 1019 q 345 963 265 963 q 483 957 415 957 q 817 979 701 962 l 833 950 q 758 867 822 941 q 616 702 693 794 q 467 517 540 610 q 358 370 394 424 q 315 262 319 303 q 338 222 318 236 q 386 202 359 208 q 444 195 414 197 q 504 193 473 194 q 651 203 579 195 q 811 222 723 211 l 830 201 l 646 -8 q 578 -13 653 -8 q 435 -17 503 -17 q 144 8 251 -17 q 32 111 36 36 q 139 307 36 195 l 555 757 q 488 751 540 755 q 375 743 437 747 q 258 738 314 739 q 119 749 155 743 q 75 771 95 753 q 54 814 56 789 q 95 893 59 856 l 239 1036 z "},"[":{"ha":472,"x_min":117,"x_max":496,"o":"m 467 -222 l 119 -231 q 133 518 133 222 q 117 1156 133 881 l 496 1153 l 453 1050 l 307 1058 q 293 480 298 853 q 297 195 295 321 q 301 -131 299 69 l 496 -117 l 467 -222 z "},"\\":{"ha":549,"x_min":-48,"x_max":543,"o":"m -48 1156 l 62 1147 q 183 779 122 955 q 304 440 243 603 q 425 140 366 278 q 543 -128 483 2 l 424 -114 q 286 279 373 40 q 107 759 199 518 q -48 1156 15 999 z "},"]":{"ha":472,"x_min":-25,"x_max":356,"o":"m -25 -225 l 17 -122 l 165 -131 q 176 492 176 135 q 168 1056 176 787 l -25 1044 l 5 1150 l 353 1156 q 343 823 347 1018 q 336 435 338 628 q 356 -231 341 -21 l -25 -225 z "},"^":{"ha":1389,"x_min":279,"x_max":1107,"o":"m 1107 608 l 1030 608 l 692 860 l 356 608 l 279 608 l 612 993 l 773 993 l 1107 608 z "},"_":{"ha":694,"x_min":0,"x_max":694,"o":"m 0 -279 l 185 -108 q 410 -133 250 -133 q 566 -129 467 -133 q 694 -125 665 -125 l 510 -290 q 271 -268 417 -273 q 157 -273 210 -270 q 82 -276 103 -275 q 0 -279 60 -277 z "},"`":{"ha":694,"x_min":214,"x_max":461,"o":"m 214 865 l 268 1004 q 461 857 359 918 l 429 765 q 351 792 385 779 q 294 817 317 805 q 244 846 271 829 q 214 865 217 863 z "},"a":{"ha":800,"x_min":14,"x_max":820,"o":"m 643 -17 q 538 183 586 115 q 413 282 490 251 q 279 310 348 310 q 204 293 231 310 q 176 244 176 276 q 240 172 185 203 q 361 139 294 141 q 464 165 426 144 l 483 142 q 342 27 410 68 q 205 -17 275 -15 q 112 6 156 -17 q 41 64 67 28 q 14 136 14 99 q 48 232 14 178 q 169 336 83 286 q 399 413 255 387 q 236 555 322 555 q 188 543 215 555 l 168 567 q 257 633 194 585 q 348 696 320 680 q 399 711 375 711 q 483 660 438 711 q 582 530 535 600 q 669 388 629 460 q 733 270 710 316 q 820 100 756 225 l 643 -17 z "},"b":{"ha":803,"x_min":-40,"x_max":773,"o":"m -19 947 l -40 974 q 92 1074 42 1037 q 178 1133 141 1111 q 239 1156 214 1156 q 288 1079 283 1156 q 289 1048 288 1069 q 290 1017 290 1028 q 287 907 290 994 q 282 717 284 819 q 284 649 283 691 q 285 559 284 607 q 288 445 286 511 q 287 427 288 438 q 286 410 286 415 q 312 254 286 314 q 378 169 338 194 q 464 142 417 143 q 564 185 528 145 q 600 290 600 224 q 584 389 600 338 q 539 482 568 439 q 470 551 509 525 q 388 576 432 576 q 353 572 370 576 l 342 597 q 420 651 380 624 q 495 693 459 678 q 569 708 531 708 q 666 671 618 708 q 744 570 714 633 q 773 436 773 507 q 683 214 773 316 q 345 -17 488 -9 q 258 6 315 -17 q 151 101 201 30 q 100 304 100 173 q 103 572 103 379 q 95 887 103 842 q 32 963 76 963 q -19 947 16 963 z "},"c":{"ha":663,"x_min":40,"x_max":624,"o":"m 603 131 q 545 83 600 129 q 439 11 489 38 q 342 -17 390 -17 q 196 35 266 -17 q 83 163 126 86 q 40 310 40 240 q 299 667 47 520 q 450 711 369 711 q 567 680 518 711 q 624 600 615 650 q 596 536 624 566 q 530 484 568 507 q 461 442 493 461 q 399 547 440 512 q 313 583 358 583 q 241 550 271 583 q 211 464 211 517 q 252 311 211 384 q 362 192 293 238 q 510 146 431 147 q 581 157 557 151 l 603 131 z "},"d":{"ha":792,"x_min":-22,"x_max":757,"o":"m 271 493 q 231 361 235 435 q 260 251 233 304 q 333 164 287 198 q 439 128 380 130 q 535 170 498 130 q 572 288 572 210 q 526 421 572 366 q 408 514 480 477 q 206 599 336 551 q 46 660 77 647 q -22 726 -22 687 q 8 783 -22 759 q 201 922 79 842 l 225 903 q 199 846 203 880 q 250 782 203 810 q 337 733 298 750 q 473 679 376 716 q 626 612 571 641 q 724 528 691 579 q 757 415 757 477 q 692 239 757 330 q 577 117 643 175 q 440 23 511 59 q 307 -14 369 -13 q 182 23 242 -14 q 84 122 121 60 q 46 258 47 185 q 68 360 46 318 q 134 437 90 402 q 256 510 179 471 l 271 493 z "},"e":{"ha":665,"x_min":40,"x_max":610,"o":"m 610 160 q 532 90 577 130 q 433 16 487 50 q 331 -17 379 -17 q 188 32 255 -17 q 81 157 121 80 q 40 310 40 233 q 77 453 43 385 q 169 574 112 520 q 296 669 225 628 q 439 711 366 711 q 528 691 489 711 q 588 638 567 670 q 608 572 608 606 q 594 526 608 549 q 546 473 574 499 q 479 421 517 448 q 410 376 441 394 q 310 315 379 357 l 288 342 q 328 369 308 356 q 363 397 347 382 q 391 430 380 412 q 401 469 401 448 q 367 537 401 508 q 290 567 333 567 q 201 461 211 567 q 239 312 201 382 q 338 200 276 242 q 472 157 401 158 q 589 190 542 162 l 610 160 z "},"f":{"ha":521,"x_min":-25,"x_max":724,"o":"m 190 -17 q 181 201 185 109 q 176 389 178 293 q 174 564 174 484 l -25 564 l 119 714 l 174 717 q 222 917 177 856 q 325 1028 261 972 q 450 1120 388 1085 q 549 1156 511 1156 q 634 1133 597 1156 q 724 1058 670 1109 l 567 928 q 445 1019 507 1019 q 372 896 382 1019 q 370 857 371 883 q 367 817 368 831 q 370 767 368 800 q 372 717 371 734 l 581 724 l 455 569 l 372 567 q 381 346 374 448 q 401 125 388 244 l 190 -17 z "},"g":{"ha":808,"x_min":-11,"x_max":839,"o":"m 453 356 q 464 421 464 383 q 421 521 464 484 q 325 558 378 558 q 246 524 280 558 q 208 445 211 490 q 288 339 213 385 q 441 302 322 320 q 619 272 560 284 q 734 221 678 260 q 789 108 789 182 q 717 -38 782 35 q 554 -170 652 -112 q 346 -262 455 -228 q 149 -296 238 -296 q -11 -203 -2 -289 q 2 -165 -11 -183 q 47 -119 16 -146 q 196 8 79 -91 l 222 -17 q 199 -76 203 -45 q 248 -138 200 -119 q 353 -157 295 -157 q 464 -131 409 -157 q 554 -65 520 -105 q 589 14 589 -24 q 424 131 589 107 q 310 140 371 135 q 186 160 249 145 q 77 211 123 175 q 25 307 30 247 q 68 420 25 352 q 179 557 111 489 q 323 670 248 625 q 461 714 399 714 q 515 703 481 714 q 558 700 543 703 q 714 711 614 702 q 839 722 814 721 l 714 567 l 612 561 l 612 532 q 472 339 612 431 l 453 356 z "},"h":{"ha":873,"x_min":-52,"x_max":803,"o":"m -32 947 l -52 979 q 67 1062 -7 1009 q 176 1135 141 1115 q 233 1156 210 1156 q 290 1056 282 1156 q 293 825 293 1022 q 291 633 293 754 q 288 439 290 512 q 285 358 286 365 q 381 475 327 410 q 484 592 434 541 q 580 677 533 644 q 665 711 628 711 q 754 600 730 711 q 771 486 760 573 q 790 294 781 399 q 803 108 799 190 l 621 -17 q 610 194 618 90 q 577 381 602 298 q 510 464 553 464 q 421 418 474 464 q 310 297 368 372 q 204 138 253 222 q 128 -17 155 54 l 89 -11 q 99 205 95 70 q 103 483 103 341 q 92 882 103 752 q 32 971 86 971 q -32 947 7 971 z "},"i":{"ha":418,"x_min":8,"x_max":375,"o":"m 375 882 q 311 831 343 856 q 246 786 280 805 q 179 765 212 767 q 74 854 115 770 l 250 987 q 375 882 304 893 m 136 -17 l 136 128 q 125 475 136 403 q 68 537 118 537 q 14 524 51 537 l 8 555 q 105 625 38 575 q 208 696 173 674 q 268 717 242 717 q 328 618 320 717 q 339 313 339 515 q 342 111 342 247 l 136 -17 z "},"j":{"ha":410,"x_min":-5,"x_max":364,"o":"m 364 879 q 312 839 355 873 q 235 785 269 804 q 168 765 201 767 q 62 854 102 770 l 239 987 q 262 952 252 968 q 285 924 273 936 q 314 902 296 912 q 364 879 332 891 m 128 -322 q 133 87 133 -36 q 125 439 133 284 q 62 540 121 540 q 14 526 39 540 l -5 553 q 111 628 40 580 q 214 695 182 676 q 268 714 247 714 q 308 679 297 714 q 319 558 319 643 l 319 -261 l 128 -322 z "},"k":{"ha":846,"x_min":-35,"x_max":860,"o":"m 97 -17 q 105 347 105 171 q 104 505 105 412 q 101 657 103 598 q 97 828 100 715 q 81 935 95 900 q 32 971 66 971 q -19 956 11 971 l -35 987 q 96 1082 -1 1010 q 217 1156 194 1154 q 259 1148 245 1156 q 279 1114 273 1140 q 285 1028 285 1087 q 287 823 285 922 q 293 611 289 724 q 303 367 297 499 q 313 122 309 235 l 97 -17 m 347 350 q 463 438 423 401 q 510 507 504 475 q 479 560 510 542 q 407 589 449 578 l 575 722 q 735 618 735 704 q 676 526 735 582 q 537 424 618 470 q 634 304 579 368 q 743 182 688 240 q 808 142 776 145 q 824 144 814 143 q 839 146 834 145 l 860 117 q 795 64 841 103 q 720 6 749 25 q 665 -14 691 -14 q 626 2 642 -12 q 572 54 609 15 q 347 350 473 160 z "},"l":{"ha":399,"x_min":-38,"x_max":315,"o":"m 97 -14 q 105 407 105 230 q 97 840 105 605 q 80 943 95 915 q 35 971 64 971 q -19 956 16 971 l -38 987 q 65 1059 -6 1007 q 175 1133 137 1110 q 242 1156 214 1156 q 277 1135 266 1156 q 288 1064 288 1114 q 289 834 288 946 q 295 605 291 723 q 304 363 298 487 q 315 119 309 239 l 97 -14 z "},"m":{"ha":1427,"x_min":3,"x_max":1361,"o":"m 14 521 l 3 550 q 102 622 39 574 q 199 691 165 670 q 258 711 232 711 q 322 632 309 711 q 337 524 330 608 q 347 361 345 439 q 518 558 470 504 q 626 661 567 613 q 726 708 684 708 q 806 612 785 708 q 839 358 836 464 q 1073 626 985 541 q 1215 711 1161 711 q 1300 629 1271 711 q 1322 511 1310 600 q 1345 311 1334 422 q 1361 108 1356 200 l 1175 -17 q 1156 218 1171 92 q 1126 390 1141 345 q 1053 464 1106 464 q 976 428 1019 464 q 886 333 932 393 q 793 195 840 273 q 706 35 747 118 l 669 38 q 663 199 668 124 q 647 333 658 274 q 618 418 636 392 q 564 447 601 447 q 438 371 511 447 q 296 183 365 294 q 188 -17 227 73 l 139 -17 q 146 233 146 146 q 128 472 146 388 q 107 522 119 506 q 71 537 94 537 q 14 521 45 537 z "},"n":{"ha":928,"x_min":-5,"x_max":865,"o":"m 865 111 l 675 -17 q 663 156 669 79 q 645 304 657 233 q 615 407 633 376 q 550 447 593 447 q 436 380 500 447 q 309 205 371 312 q 199 -17 247 99 l 151 -17 q 145 264 151 117 q 125 469 139 411 q 71 535 111 535 q 11 515 53 535 l -5 549 q 87 614 17 564 q 193 687 156 665 q 258 708 230 708 q 319 632 310 708 q 334 526 326 606 q 347 372 343 446 q 469 519 430 473 q 553 612 508 565 q 639 686 599 659 q 711 714 680 714 q 794 615 772 714 q 821 494 808 586 q 846 296 834 402 q 865 111 857 191 z "},"o":{"ha":722,"x_min":32,"x_max":686,"o":"m 258 518 q 219 390 224 466 q 252 267 221 326 q 332 172 283 208 q 429 136 380 136 q 494 174 472 138 q 515 265 515 210 q 483 407 515 335 q 388 526 450 479 q 239 572 325 572 q 174 567 221 572 l 165 594 q 435 714 324 714 q 564 667 507 714 q 654 549 622 620 q 686 407 686 477 q 672 313 686 360 q 589 178 654 257 q 440 43 524 100 q 282 -14 356 -14 q 163 30 221 -14 q 70 139 105 73 q 32 268 34 205 q 233 537 53 420 l 258 518 z "},"p":{"ha":830,"x_min":0,"x_max":792,"o":"m 339 555 q 437 632 393 598 q 524 688 481 666 q 606 711 567 711 q 692 665 649 709 q 764 546 736 620 q 792 393 792 473 q 429 43 792 181 l 418 85 q 508 135 478 115 q 564 194 539 155 q 589 290 589 233 q 581 372 589 331 q 518 507 558 462 q 435 553 478 553 q 364 512 392 553 q 336 407 336 471 l 342 -262 l 146 -322 q 147 -160 146 -268 q 149 3 149 -51 q 136 435 149 272 q 79 529 127 529 q 17 507 55 529 l 0 540 q 105 614 22 555 q 211 686 187 672 q 279 714 257 714 q 323 676 309 714 q 339 555 337 639 z "},"q":{"ha":797,"x_min":39,"x_max":720,"o":"m 461 711 l 489 711 q 583 700 535 711 q 720 663 631 690 q 712 530 718 627 q 703 331 707 432 q 697 125 699 231 q 714 -256 701 -59 l 493 -319 q 500 -117 497 -228 q 506 110 503 -6 q 514 324 509 227 q 526 507 519 421 q 475 524 506 514 q 409 542 443 535 q 342 550 375 550 q 233 464 244 550 q 232 432 232 453 q 262 292 232 359 q 343 182 293 224 q 447 139 393 140 q 472 142 458 142 l 486 111 q 434 73 485 110 q 348 18 382 36 q 285 0 314 0 q 158 53 215 7 q 70 165 101 98 q 39 300 39 232 q 40 328 39 318 q 130 497 49 409 q 311 647 211 585 q 461 711 411 708 z "},"r":{"ha":675,"x_min":0,"x_max":657,"o":"m 322 532 q 555 717 494 717 q 657 555 613 708 l 480 415 q 451 495 473 466 q 401 524 429 524 q 359 498 378 524 q 333 424 340 472 q 328 285 333 410 q 336 103 334 130 l 144 -22 l 144 68 q 140 275 144 180 q 125 467 135 370 q 76 537 120 537 q 19 518 56 537 l 0 553 q 111 630 44 582 q 212 697 177 677 q 271 717 247 717 q 310 688 298 717 q 322 592 322 660 l 322 532 z "},"s":{"ha":606,"x_min":29,"x_max":569,"o":"m 399 475 q 347 551 387 525 q 262 578 307 578 q 223 569 238 578 q 208 546 208 559 q 252 478 211 497 q 383 436 293 458 q 520 385 473 415 q 569 293 567 356 q 533 203 569 256 q 438 100 496 151 q 317 18 379 50 q 205 -14 254 -14 l 203 -14 q 79 25 127 -12 q 29 114 31 62 q 199 265 29 185 q 244 160 199 198 q 345 119 289 122 q 418 168 414 124 q 357 250 406 225 q 219 296 308 275 q 86 343 130 318 q 38 426 41 368 q 80 518 38 469 q 184 612 122 568 q 303 684 245 655 q 385 714 360 713 q 469 700 429 714 q 532 664 509 686 q 555 621 555 643 q 537 579 555 599 q 469 525 519 560 q 399 475 419 490 z "},"t":{"ha":518,"x_min":-19,"x_max":564,"o":"m -19 549 l 122 686 l 160 683 l 165 771 l 375 900 l 358 683 l 564 686 l 407 535 l 350 535 q 345 468 350 530 q 339 356 341 405 q 364 176 345 219 q 413 131 380 134 q 447 142 434 135 l 469 105 q 380 51 439 87 q 290 -1 320 14 q 244 -17 260 -17 q 184 19 207 -15 q 153 113 162 53 q 142 265 143 173 q 145 350 143 310 q 148 443 146 390 q 151 540 150 497 q 92 542 131 541 q 32 544 52 543 q -19 549 12 545 z "},"u":{"ha":890,"x_min":-5,"x_max":820,"o":"m 282 -3 q 236 -14 255 -14 q 149 139 160 -14 q 97 496 132 338 q 57 553 90 553 q 11 537 41 553 l -5 567 q 101 632 24 584 q 207 696 178 681 q 253 711 236 711 q 282 694 274 711 q 296 637 291 677 q 311 478 301 597 q 334 306 321 358 q 375 253 347 254 q 466 300 412 253 q 560 422 520 348 q 600 569 600 496 l 600 575 l 814 722 q 806 467 809 591 q 820 119 809 317 l 603 -28 l 600 358 q 422 130 518 241 q 282 -3 326 20 z "},"v":{"ha":825,"x_min":-8,"x_max":828,"o":"m 407 -17 l 358 -17 q 309 116 339 44 q 245 258 280 187 q 177 389 211 329 q 114 493 143 449 q 75 541 92 527 q 38 555 58 555 q 5 549 24 555 l -8 578 q 154 689 127 671 q 203 706 180 706 q 242 692 225 706 q 279 646 258 678 q 405 428 345 556 q 489 222 464 299 q 529 278 503 242 q 576 348 555 314 q 611 419 596 382 q 626 483 626 456 q 579 535 621 519 q 464 567 537 552 l 657 714 q 789 670 751 688 q 828 612 828 653 q 811 561 828 590 q 742 462 791 529 q 631 311 693 395 q 513 145 570 228 q 407 -17 456 63 z "},"w":{"ha":1380,"x_min":-8,"x_max":1361,"o":"m 5 549 l -8 578 q 113 662 85 643 q 168 695 141 682 q 214 708 195 708 q 256 692 238 708 q 301 635 274 675 q 370 499 318 608 q 450 307 422 390 q 562 478 516 410 q 644 592 608 547 q 708 660 681 638 q 743 674 725 674 q 835 611 786 674 q 925 467 884 548 q 996 312 965 387 q 1033 219 1026 236 q 1150 458 1150 375 q 1136 509 1150 489 q 1101 538 1122 528 q 1046 559 1080 549 q 1004 572 1011 570 l 1175 711 q 1361 600 1361 665 q 1335 537 1361 571 q 1189 338 1301 497 q 950 -17 1077 179 l 903 -17 q 825 185 868 84 q 734 356 781 285 q 649 426 687 426 q 534 331 595 424 q 426 133 472 238 q 364 -17 379 28 l 318 -17 q 275 128 301 50 q 222 275 249 206 q 164 405 195 343 q 108 504 134 466 q 35 553 80 553 q 5 549 31 553 z "},"x":{"ha":749,"x_min":8,"x_max":751,"o":"m 594 720 q 685 677 640 707 q 729 615 729 648 q 722 592 729 605 q 478 390 709 576 q 551 286 511 342 q 615 193 591 229 q 686 144 644 147 q 732 154 716 147 l 751 119 q 660 50 694 76 q 598 9 625 24 q 550 -5 572 -5 q 486 38 517 -5 q 445 98 480 46 q 378 195 409 150 q 322 274 346 241 q 285 243 316 269 q 238 199 253 217 q 222 165 223 182 q 336 100 227 126 l 182 -25 q 8 65 14 8 q 42 119 8 88 q 168 219 75 150 q 296 315 260 287 q 208 441 245 390 q 133 529 172 491 q 79 550 112 550 q 28 540 48 550 l 14 561 q 105 627 41 581 q 191 687 168 673 q 231 700 214 700 q 276 675 256 700 q 317 627 292 660 q 369 552 341 594 q 447 436 398 509 q 510 490 491 471 q 529 529 529 509 q 436 610 529 573 l 594 720 z "},"y":{"ha":882,"x_min":-5,"x_max":786,"o":"m 404 256 q 473 292 432 256 q 558 391 514 329 q 646 534 602 454 q 722 697 689 614 l 779 697 q 777 475 779 558 q 782 6 780 139 q 786 -262 783 -126 l 575 -322 q 589 162 589 -23 q 586 313 589 274 q 410 74 487 170 q 288 -14 347 -14 q 219 35 247 -14 q 191 122 204 62 q 159 288 178 181 q 128 442 139 396 q 96 526 112 503 q 60 550 81 550 q 14 535 41 550 l -5 567 q 95 633 36 592 q 185 693 154 675 q 239 711 216 711 q 304 626 289 711 q 322 499 305 620 q 357 319 339 379 q 404 256 375 258 z "},"z":{"ha":663,"x_min":43,"x_max":643,"o":"m 242 722 l 268 703 q 261 681 263 693 q 322 654 262 654 q 370 651 353 654 q 492 663 412 653 q 592 675 573 673 l 610 640 q 537 562 604 635 q 405 417 470 489 q 319 318 339 344 q 274 219 277 256 q 290 189 276 199 q 322 174 304 178 q 370 170 341 171 q 401 168 399 169 q 494 175 444 170 q 581 187 543 181 q 643 196 619 193 l 453 0 q 293 -14 381 -14 q 157 -3 216 -14 q 54 85 59 17 q 122 205 58 138 q 205 298 163 251 q 292 394 247 345 q 370 475 338 444 q 261 469 353 475 q 105 486 146 476 q 64 507 83 491 q 43 543 45 522 q 103 621 48 581 l 242 722 z "},"{":{"ha":694,"x_min":122,"x_max":578,"o":"m 578 987 q 502 971 529 983 q 455 933 475 959 q 436 820 441 912 l 436 706 q 424 567 436 623 q 376 483 412 511 q 265 432 332 452 q 404 347 368 400 q 436 171 436 301 l 436 125 q 437 62 437 93 q 441 1 438 31 q 449 -50 443 -30 q 464 -82 454 -70 q 578 -125 493 -117 l 578 -162 q 424 -147 479 -160 q 342 -97 369 -134 q 301 85 307 -50 l 301 179 q 261 356 301 316 q 122 407 224 391 l 122 455 q 212 475 182 466 q 268 512 242 484 q 304 672 304 552 l 304 765 q 316 900 307 851 q 358 976 326 948 q 406 1005 377 994 q 468 1020 434 1015 q 530 1026 502 1025 q 578 1028 559 1027 l 578 987 z "},"|":{"ha":694,"x_min":276,"x_max":418,"o":"m 418 1061 l 418 -325 l 276 -325 l 276 1061 l 418 1061 z "},"}":{"ha":694,"x_min":117,"x_max":575,"o":"m 117 987 l 117 1028 q 249 1015 198 1023 q 336 976 300 1007 q 393 763 393 926 l 393 686 q 401 572 396 608 q 426 515 407 535 q 486 476 453 487 q 575 455 518 465 l 575 407 q 432 356 471 392 q 390 199 395 322 l 390 68 q 356 -95 390 -56 q 264 -148 319 -134 q 117 -162 210 -162 l 117 -125 q 233 -85 195 -121 q 258 48 258 -52 l 258 85 q 260 192 259 142 q 268 283 261 243 q 293 350 275 324 q 429 432 333 404 q 304 496 357 449 q 256 683 261 539 q 257 756 256 709 q 258 825 258 804 q 239 936 258 904 q 193 972 220 961 q 117 987 167 983 z "},"~":{"ha":1389,"x_min":279,"x_max":1110,"o":"m 328 692 l 279 720 q 379 859 319 818 q 515 900 438 900 q 610 890 563 900 q 730 859 657 880 q 837 830 803 839 q 908 822 871 822 q 996 844 961 827 q 1061 906 1030 861 l 1110 882 q 1025 750 1075 790 q 908 703 976 710 q 872 701 896 701 q 782 711 826 701 q 672 742 738 721 q 568 772 607 763 q 492 782 529 782 q 328 692 392 782 z "},"Ä":{"ha":1010,"x_min":-68,"x_max":1047,"o":"m -68 -17 q 76 246 12 121 q 194 493 141 372 q 286 722 247 614 q 358 933 326 830 l 540 1019 l 581 1007 q 630 858 596 954 q 714 637 664 762 q 818 401 765 511 q 922 217 871 290 q 1007 139 965 142 q 1030 146 1019 144 l 1047 114 q 978 69 1029 104 q 893 14 927 34 q 840 -5 860 -5 q 780 41 817 -5 q 709 146 743 88 q 649 256 675 204 q 410 250 584 256 q 236 256 283 256 q 199 92 207 179 l -68 -17 m 282 382 q 360 379 302 380 q 445 376 418 377 q 592 379 510 379 q 439 773 512 563 q 384 643 407 699 q 335 522 360 587 q 282 382 309 457 m 779 1189 q 725 1145 754 1168 q 667 1107 695 1122 q 611 1090 639 1092 q 524 1167 556 1095 l 675 1280 q 779 1189 724 1212 m 489 1189 q 435 1145 464 1168 q 379 1107 406 1122 q 324 1090 352 1092 q 233 1167 266 1095 l 386 1280 q 489 1189 422 1219 z "},"Å":{"ha":1010,"x_min":-68,"x_max":1047,"o":"m -68 -17 q 76 246 12 121 q 194 493 141 372 q 286 722 247 614 q 358 933 326 830 l 540 1019 l 581 1007 q 630 858 596 954 q 714 637 664 762 q 818 401 765 511 q 922 217 871 290 q 1007 139 965 142 q 1030 146 1019 144 l 1047 114 q 978 69 1029 104 q 893 14 927 34 q 840 -5 860 -5 q 780 41 817 -5 q 709 146 743 88 q 649 256 675 204 q 410 250 584 256 q 236 256 283 256 q 199 92 207 179 l -68 -17 m 282 382 q 360 379 302 380 q 445 376 418 377 q 592 379 510 379 q 439 773 512 563 q 384 643 407 699 q 335 522 360 587 q 282 382 309 457 m 518 1272 q 587 1243 565 1271 q 610 1183 610 1216 q 592 1132 610 1160 q 540 1082 575 1103 q 453 1058 504 1061 q 375 1090 403 1060 q 347 1147 347 1120 q 375 1213 347 1184 q 443 1257 402 1241 q 518 1272 484 1272 m 436 1213 q 421 1170 421 1187 q 457 1130 422 1141 q 532 1118 491 1118 q 533 1132 532 1122 q 535 1144 535 1141 q 461 1213 535 1213 l 436 1213 z "},"Ç":{"ha":865,"x_min":74,"x_max":851,"o":"m 496 -11 l 493 -43 q 529 -40 515 -43 q 649 -105 645 -46 q 581 -236 649 -190 q 503 -271 533 -264 q 376 -288 472 -277 l 388 -258 q 506 -217 468 -240 q 543 -149 543 -193 q 489 -108 539 -113 q 426 -122 479 -110 q 442 0 435 -83 q 254 97 338 27 q 121 270 169 168 q 74 489 74 371 q 137 720 77 619 q 293 887 198 821 q 491 987 388 954 q 683 1019 594 1019 q 800 999 758 1019 q 843 942 843 979 q 814 896 843 921 q 731 832 786 870 q 669 789 676 794 q 480 887 588 887 q 379 857 425 887 q 304 767 332 826 q 276 626 276 708 q 309 457 276 540 q 403 307 342 374 q 544 202 464 240 q 714 162 624 163 q 836 182 779 167 l 851 154 q 795 110 833 140 q 715 52 758 79 q 623 5 672 24 q 529 -14 574 -14 q 496 -11 518 -14 z "},"É":{"ha":920,"x_min":22,"x_max":942,"o":"m 196 8 q 217 370 217 152 l 217 442 l 29 453 l 217 600 l 217 840 l 22 860 l 233 1004 q 521 993 416 993 q 906 1007 648 993 q 846 951 895 998 q 761 876 798 904 q 694 839 725 847 q 550 825 665 830 q 418 830 447 830 l 418 606 l 800 615 q 754 566 794 610 q 681 493 714 522 q 621 455 648 464 q 475 439 588 445 q 415 442 453 442 l 415 179 q 519 175 461 177 q 629 171 577 173 q 942 188 742 174 l 773 3 q 421 11 561 11 q 311 10 385 11 q 196 8 237 8 m 644 1181 q 590 1145 621 1165 q 523 1105 560 1125 q 441 1069 486 1085 l 407 1153 q 569 1305 495 1214 l 644 1181 z "},"Ñ":{"ha":1201,"x_min":-17,"x_max":1118,"o":"m 193 -29 q 208 150 202 54 q 220 356 215 246 q 229 576 225 466 q 236 754 233 687 q 156 826 207 788 q 48 863 105 863 q 0 851 23 863 l -17 885 q 96 961 45 924 q 164 1007 146 998 q 208 1019 182 1017 q 345 943 246 1019 q 565 752 444 866 q 791 529 687 637 q 936 367 894 421 q 938 443 936 376 q 939 561 939 510 q 896 900 939 769 l 1118 1053 q 1110 853 1116 992 q 1099 568 1105 713 q 1091 311 1094 423 q 1087 97 1088 198 l 914 -25 q 840 141 898 51 q 704 317 782 231 q 559 466 627 403 q 393 621 492 530 q 388 432 393 571 q 413 114 393 221 l 193 -29 m 481 1096 l 404 1181 q 561 1270 504 1270 q 604 1258 584 1270 q 646 1235 625 1247 q 689 1224 666 1224 q 800 1272 729 1224 l 865 1197 q 714 1099 783 1103 q 677 1104 693 1099 q 644 1118 662 1109 q 612 1132 626 1127 q 581 1138 598 1138 q 481 1096 540 1138 z "},"Ö":{"ha":1039,"x_min":57,"x_max":1001,"o":"m 336 746 q 268 543 273 655 q 301 390 269 465 q 382 256 332 315 q 489 164 432 197 q 597 131 547 131 q 698 174 657 136 q 759 273 739 212 q 779 407 779 334 q 736 627 779 518 q 608 806 692 736 q 410 877 524 877 q 293 857 350 877 l 268 890 q 603 1017 446 1017 q 815 948 724 1017 q 953 774 905 880 q 1001 564 1001 668 q 947 373 997 475 q 813 182 897 271 q 627 38 729 92 q 424 -17 525 -17 q 278 22 346 -14 q 161 116 210 58 q 84 247 111 174 q 57 394 57 320 q 60 435 57 407 q 98 562 67 505 q 178 666 129 618 q 310 777 228 715 l 336 746 m 825 1189 q 771 1145 800 1168 q 713 1107 741 1122 q 657 1090 685 1092 q 570 1167 602 1095 l 721 1280 q 825 1189 769 1212 m 535 1189 q 481 1145 510 1168 q 425 1107 452 1122 q 370 1090 397 1092 q 279 1167 312 1095 l 432 1280 q 535 1189 468 1219 z "},"Ü":{"ha":1161,"x_min":54,"x_max":1204,"o":"m 304 1022 q 300 967 300 998 q 336 740 300 874 q 430 474 371 605 q 555 258 489 342 q 681 174 622 175 q 683 176 682 175 q 683 176 683 176 q 776 220 732 176 q 853 337 820 263 q 905 499 887 410 q 922 675 922 587 q 903 843 922 774 l 1204 1028 q 1121 709 1183 891 q 972 361 1058 527 q 790 85 886 195 q 606 -32 694 -25 q 457 35 534 -32 q 306 215 380 102 q 171 465 232 329 q 68 735 109 601 q 54 806 60 759 q 76 878 55 848 q 128 927 98 908 q 214 973 159 945 q 304 1022 269 1000 m 933 1189 q 879 1145 908 1168 q 821 1107 849 1122 q 765 1090 793 1092 q 678 1167 710 1095 l 829 1280 q 933 1189 878 1212 m 643 1189 q 589 1145 618 1168 q 533 1107 560 1122 q 478 1090 506 1092 q 387 1167 420 1095 l 540 1280 q 643 1189 576 1219 z "},"á":{"ha":800,"x_min":14,"x_max":820,"o":"m 643 -17 q 538 183 586 115 q 413 282 490 251 q 279 310 348 310 q 204 293 231 310 q 176 244 176 276 q 240 172 185 203 q 361 139 294 141 q 464 165 426 144 l 483 142 q 342 27 410 68 q 205 -17 275 -15 q 112 6 156 -17 q 41 64 67 28 q 14 136 14 99 q 48 232 14 178 q 169 336 83 286 q 399 413 255 387 q 236 555 322 555 q 188 543 215 555 l 168 567 q 257 633 194 585 q 348 696 320 680 q 399 711 375 711 q 483 660 438 711 q 582 530 535 600 q 669 388 629 460 q 733 270 710 316 q 820 100 756 225 l 643 -17 m 533 874 q 479 838 510 858 q 411 798 449 818 q 330 763 374 779 l 296 846 q 458 999 384 907 l 533 874 z "},"à":{"ha":800,"x_min":14,"x_max":820,"o":"m 643 -17 q 538 183 586 115 q 413 282 490 251 q 279 310 348 310 q 204 293 231 310 q 176 244 176 276 q 240 172 185 203 q 361 139 294 141 q 464 165 426 144 l 483 142 q 342 27 410 68 q 205 -17 275 -15 q 112 6 156 -17 q 41 64 67 28 q 14 136 14 99 q 48 232 14 178 q 169 336 83 286 q 399 413 255 387 q 236 555 322 555 q 188 543 215 555 l 168 567 q 257 633 194 585 q 348 696 320 680 q 399 711 375 711 q 483 660 438 711 q 582 530 535 600 q 669 388 629 460 q 733 270 710 316 q 820 100 756 225 l 643 -17 m 246 865 l 300 1004 q 493 857 391 918 l 461 765 q 382 792 416 779 q 326 817 349 805 q 276 846 303 829 q 246 865 249 863 z "},"â":{"ha":800,"x_min":14,"x_max":820,"o":"m 643 -17 q 538 183 586 115 q 413 282 490 251 q 279 310 348 310 q 204 293 231 310 q 176 244 176 276 q 240 172 185 203 q 361 139 294 141 q 464 165 426 144 l 483 142 q 342 27 410 68 q 205 -17 275 -15 q 112 6 156 -17 q 41 64 67 28 q 14 136 14 99 q 48 232 14 178 q 169 336 83 286 q 399 413 255 387 q 236 555 322 555 q 188 543 215 555 l 168 567 q 257 633 194 585 q 348 696 320 680 q 399 711 375 711 q 483 660 438 711 q 582 530 535 600 q 669 388 629 460 q 733 270 710 316 q 820 100 756 225 l 643 -17 m 582 839 l 522 765 q 480 801 498 781 q 453 838 462 821 q 435 875 443 855 q 422 908 427 894 q 276 768 371 825 l 205 828 q 304 907 267 870 q 365 996 341 943 q 419 993 401 996 q 464 996 434 995 q 507 999 493 997 q 520 918 507 949 q 582 839 533 887 z "},"ä":{"ha":800,"x_min":14,"x_max":820,"o":"m 643 -17 q 538 183 586 115 q 413 282 490 251 q 279 310 348 310 q 204 293 231 310 q 176 244 176 276 q 240 172 185 203 q 361 139 294 141 q 464 165 426 144 l 483 142 q 342 27 410 68 q 205 -17 275 -15 q 112 6 156 -17 q 41 64 67 28 q 14 136 14 99 q 48 232 14 178 q 169 336 83 286 q 399 413 255 387 q 236 555 322 555 q 188 543 215 555 l 168 567 q 257 633 194 585 q 348 696 320 680 q 399 711 375 711 q 483 660 438 711 q 582 530 535 600 q 669 388 629 460 q 733 270 710 316 q 820 100 756 225 l 643 -17 m 692 885 q 637 841 667 864 q 580 803 608 818 q 524 786 552 787 q 436 863 469 791 l 588 976 q 692 885 636 908 m 401 885 q 348 841 377 864 q 291 803 319 818 q 236 786 264 787 q 146 863 179 791 l 299 976 q 401 885 335 915 z "},"ã":{"ha":800,"x_min":14,"x_max":820,"o":"m 643 -17 q 538 183 586 115 q 413 282 490 251 q 279 310 348 310 q 204 293 231 310 q 176 244 176 276 q 240 172 185 203 q 361 139 294 141 q 464 165 426 144 l 483 142 q 342 27 410 68 q 205 -17 275 -15 q 112 6 156 -17 q 41 64 67 28 q 14 136 14 99 q 48 232 14 178 q 169 336 83 286 q 399 413 255 387 q 236 555 322 555 q 188 543 215 555 l 168 567 q 257 633 194 585 q 348 696 320 680 q 399 711 375 711 q 483 660 438 711 q 582 530 535 600 q 669 388 629 460 q 733 270 710 316 q 820 100 756 225 l 643 -17 m 234 792 l 157 877 q 314 965 257 965 q 357 954 336 965 q 399 931 378 943 q 442 920 419 920 q 553 968 481 920 l 618 893 q 467 794 535 799 q 430 800 446 794 q 397 814 414 805 q 365 828 379 823 q 333 833 351 833 q 234 792 293 833 z "},"å":{"ha":800,"x_min":14,"x_max":820,"o":"m 643 -17 q 538 183 586 115 q 413 282 490 251 q 279 310 348 310 q 204 293 231 310 q 176 244 176 276 q 240 172 185 203 q 361 139 294 141 q 464 165 426 144 l 483 142 q 342 27 410 68 q 205 -17 275 -15 q 112 6 156 -17 q 41 64 67 28 q 14 136 14 99 q 48 232 14 178 q 169 336 83 286 q 399 413 255 387 q 236 555 322 555 q 188 543 215 555 l 168 567 q 257 633 194 585 q 348 696 320 680 q 399 711 375 711 q 483 660 438 711 q 582 530 535 600 q 669 388 629 460 q 733 270 710 316 q 820 100 756 225 l 643 -17 m 439 979 q 508 950 486 978 q 531 890 531 923 q 513 839 531 867 q 461 789 496 810 q 374 765 425 768 q 296 797 324 767 q 268 854 268 827 q 296 920 268 891 q 364 964 323 948 q 439 979 405 979 m 357 920 q 342 877 342 895 q 378 837 343 848 q 453 825 412 825 q 454 839 453 829 q 456 851 456 848 q 382 920 456 920 l 357 920 z "},"ç":{"ha":663,"x_min":40,"x_max":624,"o":"m 285 -5 q 163 63 219 12 q 73 181 106 114 q 40 310 40 249 q 110 509 42 422 q 299 667 178 596 q 450 711 369 711 q 567 680 518 711 q 624 600 615 650 q 596 536 624 566 q 530 484 568 507 q 461 442 493 461 q 399 547 440 512 q 313 583 358 583 q 241 550 271 583 q 211 464 211 517 q 252 311 211 384 q 362 192 293 238 q 510 146 431 147 q 581 157 557 151 l 603 131 q 547 85 603 130 q 440 13 491 40 q 339 -14 389 -14 l 336 -43 q 372 -40 358 -43 q 492 -105 485 -45 q 421 -239 492 -195 q 377 -262 395 -255 q 338 -273 359 -269 q 290 -280 318 -277 q 219 -288 262 -283 l 228 -258 q 345 -217 308 -240 q 382 -149 382 -193 q 331 -108 382 -113 q 292 -117 314 -112 q 268 -122 269 -122 q 278 -61 273 -100 q 285 -5 282 -23 z "},"é":{"ha":665,"x_min":40,"x_max":610,"o":"m 610 160 q 532 90 577 130 q 433 16 487 50 q 331 -17 379 -17 q 188 32 255 -17 q 81 157 121 80 q 40 310 40 233 q 77 453 43 385 q 169 574 112 520 q 296 669 225 628 q 439 711 366 711 q 528 691 489 711 q 588 638 567 670 q 608 572 608 606 q 594 526 608 549 q 546 473 574 499 q 479 421 517 448 q 410 376 441 394 q 310 315 379 357 l 288 342 q 328 369 308 356 q 363 397 347 382 q 391 430 380 412 q 401 469 401 448 q 367 537 401 508 q 290 567 333 567 q 201 461 211 567 q 239 312 201 382 q 338 200 276 242 q 472 157 401 158 q 589 190 542 162 l 610 160 m 553 877 q 499 841 529 861 q 431 801 468 821 q 350 765 394 781 l 315 849 q 478 1001 403 910 l 553 877 z "},"è":{"ha":665,"x_min":40,"x_max":610,"o":"m 610 160 q 532 90 577 130 q 433 16 487 50 q 331 -17 379 -17 q 188 32 255 -17 q 81 157 121 80 q 40 310 40 233 q 77 453 43 385 q 169 574 112 520 q 296 669 225 628 q 439 711 366 711 q 528 691 489 711 q 588 638 567 670 q 608 572 608 606 q 594 526 608 549 q 546 473 574 499 q 479 421 517 448 q 410 376 441 394 q 310 315 379 357 l 288 342 q 328 369 308 356 q 363 397 347 382 q 391 430 380 412 q 401 469 401 448 q 367 537 401 508 q 290 567 333 567 q 201 461 211 567 q 239 312 201 382 q 338 200 276 242 q 472 157 401 158 q 589 190 542 162 l 610 160 m 266 865 l 320 1004 q 513 857 411 918 l 481 765 q 402 792 436 779 q 345 817 368 805 q 296 846 322 829 q 266 865 269 863 z "},"ê":{"ha":665,"x_min":40,"x_max":610,"o":"m 610 160 q 532 90 577 130 q 433 16 487 50 q 331 -17 379 -17 q 188 32 255 -17 q 81 157 121 80 q 40 310 40 233 q 77 453 43 385 q 169 574 112 520 q 296 669 225 628 q 439 711 366 711 q 528 691 489 711 q 588 638 567 670 q 608 572 608 606 q 594 526 608 549 q 546 473 574 499 q 479 421 517 448 q 410 376 441 394 q 310 315 379 357 l 288 342 q 328 369 308 356 q 363 397 347 382 q 391 430 380 412 q 401 469 401 448 q 367 537 401 508 q 290 567 333 567 q 201 461 211 567 q 239 312 201 382 q 338 200 276 242 q 472 157 401 158 q 589 190 542 162 l 610 160 m 604 836 l 545 763 q 503 798 520 778 q 475 836 485 819 q 458 872 466 852 q 445 906 450 891 q 299 765 393 823 l 228 825 q 326 904 289 868 q 388 993 364 941 q 442 990 424 993 q 486 993 457 992 q 529 996 515 995 q 542 915 529 946 q 604 836 555 884 z "},"ë":{"ha":665,"x_min":40,"x_max":708,"o":"m 610 160 q 532 90 577 130 q 433 16 487 50 q 331 -17 379 -17 q 188 32 255 -17 q 81 157 121 80 q 40 310 40 233 q 77 453 43 385 q 169 574 112 520 q 296 669 225 628 q 439 711 366 711 q 528 691 489 711 q 588 638 567 670 q 608 572 608 606 q 594 526 608 549 q 546 473 574 499 q 479 421 517 448 q 410 376 441 394 q 310 315 379 357 l 288 342 q 328 369 308 356 q 363 397 347 382 q 391 430 380 412 q 401 469 401 448 q 367 537 401 508 q 290 567 333 567 q 201 461 211 567 q 239 312 201 382 q 338 200 276 242 q 472 157 401 158 q 589 190 542 162 l 610 160 m 708 885 q 654 841 683 864 q 596 803 625 818 q 541 786 568 787 q 453 863 486 791 l 604 976 q 708 885 653 908 m 418 885 q 364 841 393 864 q 308 803 335 818 q 253 786 281 787 q 162 863 195 791 l 315 976 q 418 885 351 915 z "},"í":{"ha":418,"x_min":8,"x_max":342,"o":"m 136 -17 q 137 78 136 15 q 139 188 139 141 q 132 404 139 314 q 114 512 126 494 q 65 537 101 537 q 14 524 43 537 l 8 555 q 105 625 36 574 q 209 696 174 676 q 268 717 244 717 q 328 632 316 717 q 339 333 339 564 q 342 111 342 261 l 136 -17 m 341 877 q 288 841 318 861 q 220 801 257 821 q 139 765 183 781 l 104 849 q 267 1001 192 910 l 341 877 z "},"ì":{"ha":418,"x_min":8,"x_max":342,"o":"m 136 -17 q 137 78 136 15 q 139 188 139 141 q 132 404 139 314 q 114 512 126 494 q 65 537 101 537 q 14 524 43 537 l 8 555 q 105 625 36 574 q 209 696 174 676 q 268 717 244 717 q 328 632 316 717 q 339 333 339 564 q 342 111 342 261 l 136 -17 m 57 865 l 111 1004 q 304 857 202 918 l 272 765 q 194 792 228 779 q 137 817 160 805 q 87 846 114 829 q 57 865 60 863 z "},"î":{"ha":418,"x_min":8,"x_max":396,"o":"m 136 -17 q 137 78 136 15 q 139 188 139 141 q 132 404 139 314 q 114 512 126 494 q 65 537 101 537 q 14 524 43 537 l 8 555 q 105 625 36 574 q 209 696 174 676 q 268 717 244 717 q 328 632 316 717 q 339 333 339 564 q 342 111 342 261 l 136 -17 m 396 839 l 336 765 q 294 801 312 781 q 267 838 276 821 q 249 875 257 855 q 236 908 241 894 q 90 768 185 825 l 19 828 q 118 907 80 870 q 179 996 155 943 q 233 993 215 996 q 277 996 248 995 q 321 999 307 997 q 334 918 321 949 q 396 839 347 887 z "},"ï":{"ha":418,"x_min":-49,"x_max":497,"o":"m 136 -17 q 137 78 136 15 q 139 188 139 141 q 132 404 139 314 q 114 512 126 494 q 65 537 101 537 q 14 524 43 537 l 8 555 q 105 625 36 574 q 209 696 174 676 q 268 717 244 717 q 328 632 316 717 q 339 333 339 564 q 342 111 342 261 l 136 -17 m 497 885 q 443 841 472 864 q 385 803 413 818 q 329 786 357 787 q 242 863 274 791 l 393 976 q 497 885 441 908 m 207 885 q 153 841 182 864 q 97 803 124 818 q 42 786 70 787 q -49 863 -16 791 l 104 976 q 207 885 140 915 z "},"ñ":{"ha":928,"x_min":-5,"x_max":865,"o":"m 865 111 l 675 -17 q 663 156 669 79 q 645 304 657 233 q 615 407 633 376 q 550 447 593 447 q 436 380 500 447 q 309 205 371 312 q 199 -17 247 99 l 151 -17 q 145 264 151 117 q 125 469 139 411 q 71 535 111 535 q 11 515 53 535 l -5 549 q 87 614 17 564 q 193 687 156 665 q 258 708 230 708 q 319 632 310 708 q 334 526 326 606 q 347 372 343 446 q 469 519 430 473 q 553 612 508 565 q 639 686 599 659 q 711 714 680 714 q 794 615 772 714 q 821 494 808 586 q 846 296 834 402 q 865 111 857 191 m 310 792 l 233 877 q 390 965 333 965 q 434 954 413 965 q 475 931 454 943 q 518 920 495 920 q 629 968 558 920 l 694 893 q 543 794 612 799 q 506 800 522 794 q 473 814 491 805 q 441 828 455 823 q 410 833 427 833 q 310 792 369 833 z "},"ó":{"ha":722,"x_min":32,"x_max":686,"o":"m 258 518 q 219 390 224 466 q 252 267 221 326 q 332 172 283 208 q 429 136 380 136 q 494 174 472 138 q 515 265 515 210 q 483 407 515 335 q 388 526 450 479 q 239 572 325 572 q 174 567 221 572 l 165 594 q 435 714 324 714 q 564 667 507 714 q 654 549 622 620 q 686 407 686 477 q 672 313 686 360 q 589 178 654 257 q 440 43 524 100 q 282 -14 356 -14 q 163 30 221 -14 q 70 139 105 73 q 32 268 34 205 q 233 537 53 420 l 258 518 m 515 879 q 461 844 492 864 q 394 804 431 824 q 312 768 356 784 l 278 851 q 440 1004 366 912 l 515 879 z "},"ò":{"ha":722,"x_min":32,"x_max":686,"o":"m 258 518 q 219 390 224 466 q 252 267 221 326 q 332 172 283 208 q 429 136 380 136 q 494 174 472 138 q 515 265 515 210 q 483 407 515 335 q 388 526 450 479 q 239 572 325 572 q 174 567 221 572 l 165 594 q 435 714 324 714 q 564 667 507 714 q 654 549 622 620 q 686 407 686 477 q 672 313 686 360 q 589 178 654 257 q 440 43 524 100 q 282 -14 356 -14 q 163 30 221 -14 q 70 139 105 73 q 32 268 34 205 q 233 537 53 420 l 258 518 m 225 865 l 279 1004 q 472 857 370 918 l 440 765 q 362 792 396 779 q 305 817 328 805 q 255 846 282 829 q 225 865 228 863 z "},"ô":{"ha":722,"x_min":32,"x_max":686,"o":"m 258 518 q 219 390 224 466 q 252 267 221 326 q 332 172 283 208 q 429 136 380 136 q 494 174 472 138 q 515 265 515 210 q 483 407 515 335 q 388 526 450 479 q 239 572 325 572 q 174 567 221 572 l 165 594 q 435 714 324 714 q 564 667 507 714 q 654 549 622 620 q 686 407 686 477 q 672 313 686 360 q 589 178 654 257 q 440 43 524 100 q 282 -14 356 -14 q 163 30 221 -14 q 70 139 105 73 q 32 268 34 205 q 233 537 53 420 l 258 518 m 564 839 l 504 765 q 462 801 480 781 q 435 838 444 821 q 417 875 425 855 q 404 908 409 894 q 258 768 353 825 l 188 828 q 286 907 249 870 q 347 996 323 943 q 401 993 384 996 q 446 996 416 995 q 489 999 475 997 q 502 918 489 949 q 564 839 515 887 z "},"ö":{"ha":722,"x_min":32,"x_max":686,"o":"m 258 518 q 219 390 224 466 q 252 267 221 326 q 332 172 283 208 q 429 136 380 136 q 494 174 472 138 q 515 265 515 210 q 483 407 515 335 q 388 526 450 479 q 239 572 325 572 q 174 567 221 572 l 165 594 q 435 714 324 714 q 564 667 507 714 q 654 549 622 620 q 686 407 686 477 q 672 313 686 360 q 589 178 654 257 q 440 43 524 100 q 282 -14 356 -14 q 163 30 221 -14 q 70 139 105 73 q 32 268 34 205 q 233 537 53 420 l 258 518 m 668 885 q 614 841 643 864 q 556 803 584 818 q 500 786 528 787 q 413 863 445 791 l 564 976 q 668 885 612 908 m 378 885 q 324 841 353 864 q 268 803 295 818 q 213 786 240 787 q 122 863 155 791 l 275 976 q 378 885 311 915 z "},"õ":{"ha":722,"x_min":32,"x_max":686,"o":"m 258 518 q 219 390 224 466 q 252 267 221 326 q 332 172 283 208 q 429 136 380 136 q 494 174 472 138 q 515 265 515 210 q 483 407 515 335 q 388 526 450 479 q 239 572 325 572 q 174 567 221 572 l 165 594 q 435 714 324 714 q 564 667 507 714 q 654 549 622 620 q 686 407 686 477 q 672 313 686 360 q 589 178 654 257 q 440 43 524 100 q 282 -14 356 -14 q 163 30 221 -14 q 70 139 105 73 q 32 268 34 205 q 233 537 53 420 l 258 518 m 213 792 l 136 877 q 293 965 236 965 q 336 954 315 965 q 378 931 357 943 q 421 920 398 920 q 532 968 460 920 l 597 893 q 446 794 514 799 q 409 800 425 794 q 376 814 393 805 q 344 828 358 823 q 312 833 330 833 q 213 792 272 833 z "},"ú":{"ha":890,"x_min":-5,"x_max":820,"o":"m 282 -3 q 236 -14 255 -14 q 149 139 160 -14 q 97 496 132 338 q 57 553 90 553 q 11 537 41 553 l -5 567 q 101 632 24 584 q 207 696 178 681 q 253 711 236 711 q 282 694 274 711 q 296 637 291 677 q 311 478 301 597 q 334 306 321 358 q 375 253 347 254 q 466 300 412 253 q 560 422 520 348 q 600 569 600 496 l 600 575 l 814 722 q 806 467 809 591 q 820 119 809 317 l 603 -28 l 600 358 q 422 130 518 241 q 282 -3 326 20 m 624 877 q 570 841 600 861 q 502 801 539 821 q 421 765 465 781 l 386 849 q 549 1001 474 910 l 624 877 z "},"ù":{"ha":890,"x_min":-5,"x_max":820,"o":"m 282 -3 q 236 -14 255 -14 q 149 139 160 -14 q 97 496 132 338 q 57 553 90 553 q 11 537 41 553 l -5 567 q 101 632 24 584 q 207 696 178 681 q 253 711 236 711 q 282 694 274 711 q 296 637 291 677 q 311 478 301 597 q 334 306 321 358 q 375 253 347 254 q 466 300 412 253 q 560 422 520 348 q 600 569 600 496 l 600 575 l 814 722 q 806 467 809 591 q 820 119 809 317 l 603 -28 l 600 358 q 422 130 518 241 q 282 -3 326 20 m 336 863 l 390 1001 q 583 854 481 915 l 551 763 q 473 789 507 776 q 416 814 439 803 q 366 843 393 826 q 336 863 339 861 z "},"û":{"ha":890,"x_min":-5,"x_max":820,"o":"m 282 -3 q 236 -14 255 -14 q 149 139 160 -14 q 97 496 132 338 q 57 553 90 553 q 11 537 41 553 l -5 567 q 101 632 24 584 q 207 696 178 681 q 253 711 236 711 q 282 694 274 711 q 296 637 291 677 q 311 478 301 597 q 334 306 321 358 q 375 253 347 254 q 466 300 412 253 q 560 422 520 348 q 600 569 600 496 l 600 575 l 814 722 q 806 467 809 591 q 820 119 809 317 l 603 -28 l 600 358 q 422 130 518 241 q 282 -3 326 20 m 678 836 l 618 763 q 576 798 594 778 q 549 836 558 819 q 531 872 539 852 q 518 906 523 891 q 372 765 467 823 l 301 825 q 400 904 362 868 q 461 993 437 941 q 515 990 497 993 q 559 993 530 992 q 603 996 589 995 q 616 915 603 946 q 678 836 629 884 z "},"ü":{"ha":890,"x_min":-5,"x_max":820,"o":"m 282 -3 q 236 -14 255 -14 q 149 139 160 -14 q 97 496 132 338 q 57 553 90 553 q 11 537 41 553 l -5 567 q 101 632 24 584 q 207 696 178 681 q 253 711 236 711 q 282 694 274 711 q 296 637 291 677 q 311 478 301 597 q 334 306 321 358 q 375 253 347 254 q 466 300 412 253 q 560 422 520 348 q 600 569 600 496 l 600 575 l 814 722 q 806 467 809 591 q 820 119 809 317 l 603 -28 l 600 358 q 422 130 518 241 q 282 -3 326 20 m 779 885 q 725 841 754 864 q 667 803 695 818 q 611 786 639 787 q 524 863 556 791 l 675 976 q 779 885 724 908 m 489 885 q 435 841 464 864 q 379 803 406 818 q 324 786 352 787 q 233 863 266 791 l 386 976 q 489 885 422 915 z "},"†":{"ha":694,"x_min":14,"x_max":711,"o":"m 14 564 l 122 720 q 200 715 145 718 q 290 711 255 711 l 279 914 l 464 1047 q 435 711 440 873 q 711 743 589 711 l 603 589 q 435 600 527 600 q 432 498 435 535 q 443 256 434 370 q 467 28 453 142 l 274 -103 q 281 135 278 4 q 286 383 284 266 q 288 600 288 501 q 14 564 109 594 z "},"¢":{"ha":603,"x_min":60,"x_max":589,"o":"m 318 271 l 318 413 q 315 615 318 550 q 214 515 220 609 q 244 389 214 462 q 318 271 273 316 m 304 -76 q 310 74 310 21 q 188 130 245 87 q 96 236 131 173 q 60 370 61 299 q 128 555 60 464 q 313 703 196 646 q 307 803 307 763 l 385 863 l 376 724 q 426 726 393 726 q 512 712 474 726 q 569 673 549 697 q 589 621 589 648 q 548 554 589 584 q 447 496 506 524 q 423 555 437 531 q 376 600 408 578 q 375 494 376 565 q 372 388 374 424 q 375 242 375 339 q 475 214 416 218 q 549 228 508 217 l 567 203 q 454 115 485 137 q 376 79 423 93 q 382 -17 376 50 l 304 -76 z "},"£":{"ha":740,"x_min":-14,"x_max":729,"o":"m 162 -11 q 174 345 174 220 l -14 342 l 117 486 q 168 483 131 483 q 186 584 172 548 q 228 651 199 619 q 328 738 269 695 q 451 807 388 780 q 561 833 513 833 q 675 804 621 831 q 729 738 729 778 q 555 610 729 672 q 515 695 545 664 q 453 726 486 726 q 372 651 398 726 q 356 478 356 600 q 649 489 518 478 l 502 322 q 356 342 453 342 l 356 149 q 399 146 375 147 q 447 144 424 145 q 621 155 528 145 q 724 165 714 165 l 558 -8 q 489 -5 529 -7 q 411 -1 449 -2 q 347 0 373 0 q 162 -11 245 0 z "},"§":{"ha":760,"x_min":40,"x_max":717,"o":"m 242 589 q 193 496 197 555 q 260 411 208 440 q 378 368 312 382 q 515 339 443 354 q 561 426 561 377 q 540 483 561 456 q 242 589 490 532 m 717 507 q 667 406 717 460 q 575 322 617 351 q 667 171 667 258 q 630 64 667 116 q 536 -31 594 12 q 413 -98 478 -73 q 296 -122 348 -122 q 95 5 119 -115 q 118 70 95 42 q 176 118 142 98 q 242 157 211 139 q 301 32 255 72 q 401 -8 346 -8 q 481 17 451 -8 q 512 85 512 43 q 446 191 506 159 q 271 250 387 223 q 97 310 155 277 q 40 418 40 342 q 185 610 40 504 q 92 738 97 652 q 145 868 93 803 q 283 975 196 933 q 469 1017 370 1017 q 586 998 531 1017 q 646 942 641 979 q 630 915 646 929 q 591 887 615 901 q 541 860 567 873 q 492 836 516 848 q 450 908 486 882 q 370 933 415 933 q 292 907 325 933 q 258 839 258 881 q 285 760 258 789 q 353 718 312 732 q 480 683 395 704 q 602 648 555 666 q 682 596 649 631 q 717 507 715 562 z "},"•":{"ha":379,"x_min":208,"x_max":610,"o":"m 410 717 q 510 690 465 717 q 583 616 556 663 q 610 515 610 570 q 583 415 610 461 q 510 342 556 369 q 410 315 464 315 q 309 342 355 315 q 235 415 262 369 q 208 515 208 460 q 235 616 208 570 q 309 690 262 663 q 410 717 355 717 z "},"¶":{"ha":694,"x_min":25,"x_max":667,"o":"m 288 1004 l 667 1004 l 667 928 l 592 928 l 592 0 l 489 0 l 489 928 l 379 928 l 379 0 l 276 0 l 276 532 q 140 568 197 534 q 55 654 83 601 q 25 765 27 706 q 57 882 27 828 q 147 970 88 937 q 288 1004 206 1004 z "},"ß":{"ha":930,"x_min":-25,"x_max":890,"o":"m 399 43 q 550 203 450 95 q 651 125 606 130 q 695 159 679 125 q 711 244 711 192 q 681 393 711 317 q 591 520 651 469 q 446 571 531 571 q 396 567 423 571 l 492 717 q 610 797 610 717 q 586 892 610 840 q 524 980 563 944 q 442 1017 485 1017 q 382 964 398 1017 q 367 820 367 912 q 375 451 367 660 q 401 125 384 242 l 190 -17 q 178 311 182 185 q 174 564 174 437 l -25 564 l 122 717 l 174 717 q 236 936 174 862 q 340 1046 283 996 q 451 1125 397 1097 q 550 1156 505 1154 q 667 1114 612 1156 q 756 1004 723 1072 q 789 865 789 936 q 750 738 789 794 q 629 654 710 681 q 820 573 750 644 q 890 396 890 501 q 871 287 890 343 q 811 174 851 231 q 674 28 739 71 q 543 -14 610 -14 q 465 0 500 -10 q 399 43 430 10 z "},"®":{"ha":1142,"x_min":76,"x_max":1067,"o":"m 572 957 q 819 890 705 957 q 1000 709 933 823 q 1067 461 1067 595 q 1000 213 1067 328 q 819 32 933 99 q 572 -35 705 -35 q 324 32 438 -35 q 143 213 209 99 q 76 461 76 327 q 143 709 76 595 q 324 890 209 823 q 572 957 438 957 m 572 887 q 359 830 457 887 q 203 675 260 773 q 146 461 146 576 q 203 247 146 346 q 359 92 260 149 q 572 35 457 35 q 784 92 687 35 q 939 247 882 149 q 996 461 996 346 q 939 675 996 576 q 784 830 882 773 q 572 887 687 887 m 315 708 l 315 743 l 592 743 q 752 703 698 739 q 806 603 806 666 q 762 518 806 550 q 615 469 719 486 q 727 412 694 449 q 764 333 759 375 q 774 260 769 290 q 806 228 779 229 q 843 318 843 228 l 879 318 q 841 208 879 239 q 757 176 803 176 q 666 215 686 180 q 643 319 647 251 q 615 421 638 387 q 515 455 592 455 l 515 285 q 583 228 515 238 l 583 193 l 315 193 l 315 228 q 388 288 385 228 l 388 651 q 370 691 386 678 q 315 708 354 704 m 515 492 q 543 489 532 492 q 675 606 675 494 q 640 681 675 651 q 564 711 605 711 q 531 701 545 711 q 515 672 517 690 l 515 492 z "},"©":{"ha":1142,"x_min":76,"x_max":1069,"o":"m 572 957 q 821 890 706 957 q 1003 709 936 824 q 1069 461 1069 595 q 1003 213 1069 328 q 821 32 936 99 q 572 -35 706 -35 q 324 32 438 -35 q 143 213 209 99 q 76 461 76 327 q 143 709 76 595 q 324 890 209 823 q 572 957 438 957 m 572 887 q 359 830 457 887 q 203 675 260 773 q 146 461 146 576 q 203 247 146 346 q 359 92 260 149 q 572 35 457 35 q 784 92 687 35 q 939 247 882 149 q 996 461 996 346 q 939 675 996 576 q 784 830 882 773 q 572 887 687 887 m 763 526 q 695 663 736 615 q 578 711 653 711 q 426 464 426 711 q 594 208 426 208 q 689 236 648 211 q 777 325 729 260 l 806 307 q 704 199 765 239 q 567 160 643 160 q 410 206 476 163 q 311 315 345 249 q 276 455 278 382 q 311 600 278 533 q 411 708 345 667 q 567 749 476 749 q 631 740 604 749 q 686 719 658 732 q 724 706 714 707 q 765 746 750 709 l 794 746 l 794 526 l 763 526 z "},"™":{"ha":1142,"x_min":151,"x_max":968,"o":"m 512 963 l 512 987 l 657 987 l 746 735 l 833 987 l 968 987 l 968 968 q 935 956 944 962 q 925 933 925 951 l 925 667 q 968 635 929 640 l 968 612 l 794 612 l 794 635 q 830 646 821 641 q 840 669 839 650 l 840 920 l 735 612 l 714 612 l 600 928 l 600 667 q 611 647 602 652 q 649 635 620 642 l 649 612 l 512 612 l 512 635 q 545 643 528 635 q 561 669 561 652 l 561 930 q 551 953 561 948 q 512 963 541 958 m 160 987 l 467 987 l 475 854 l 453 854 q 361 957 445 957 l 361 672 q 369 646 361 654 q 404 635 376 638 l 404 612 l 222 612 l 222 635 q 243 640 233 637 q 261 649 254 642 q 268 672 268 656 l 268 957 q 176 854 181 957 l 151 854 l 160 987 z "},"´":{"ha":694,"x_min":261,"x_max":498,"o":"m 498 877 q 445 841 475 861 q 377 801 414 821 q 296 765 340 781 l 261 849 q 424 1001 349 910 l 498 877 z "},"¨":{"ha":694,"x_min":108,"x_max":654,"o":"m 654 885 q 600 841 629 864 q 542 803 570 818 q 486 786 514 787 q 399 863 431 791 l 550 976 q 654 885 598 908 m 364 885 q 310 841 339 864 q 254 803 281 818 q 199 786 227 787 q 108 863 141 791 l 261 976 q 364 885 297 915 z "},"Æ":{"ha":1244,"x_min":-89,"x_max":1270,"o":"m 322 372 l 550 372 l 550 820 q 491 706 530 780 q 423 575 452 631 q 366 464 394 519 q 322 372 339 409 m 483 1004 q 585 999 492 1004 q 741 992 679 995 q 877 987 804 989 q 1235 1007 1051 992 q 1169 947 1208 983 q 1087 879 1129 910 q 1017 839 1046 848 q 868 825 987 830 q 743 828 820 828 l 743 606 q 1126 618 963 606 q 1077 566 1121 613 q 1002 490 1034 519 q 944 453 970 461 q 789 436 902 442 q 740 439 771 439 l 740 179 q 806 176 773 178 q 871 174 838 175 q 936 171 903 172 q 1270 190 1123 175 l 1096 0 q 760 11 924 11 q 646 10 722 11 q 529 8 570 8 q 550 244 541 86 l 256 244 q 223 162 244 217 q 199 85 203 106 l -89 -29 q 81 220 -1 92 q 241 484 164 348 q 381 753 318 620 q 483 1004 444 886 z "},"Ø":{"ha":1039,"x_min":60,"x_max":996,"o":"m 711 703 q 535 418 596 519 q 415 203 474 318 q 508 146 470 162 q 594 131 545 131 q 699 174 655 136 q 766 276 744 213 q 789 415 789 339 q 711 703 789 562 m 299 11 q 268 -60 278 -26 l 103 -97 q 144 -27 104 -95 q 203 68 184 40 q 101 206 140 116 q 60 390 62 296 q 62 436 62 410 q 104 565 70 505 q 188 675 137 626 q 310 777 239 725 l 336 746 q 262 535 267 650 q 342 290 266 427 q 640 789 515 556 q 426 885 554 885 q 293 857 358 885 l 268 890 q 434 982 356 947 q 603 1017 512 1017 q 757 985 684 1017 q 782 1053 770 1011 l 950 1090 l 849 922 q 936 810 903 865 q 982 697 968 754 q 996 569 996 639 q 961 401 994 489 q 859 229 927 314 q 692 79 791 145 q 558 13 630 37 q 418 -11 486 -11 q 299 11 345 -11 z "},"±":{"ha":1156,"x_min":171,"x_max":985,"o":"m 649 830 l 649 608 l 985 608 l 985 475 l 649 475 l 649 253 l 510 253 l 510 475 l 171 475 l 171 608 l 510 608 l 510 830 l 649 830 m 171 133 l 985 133 l 985 0 l 171 0 l 171 133 z "},"¥":{"ha":773,"x_min":-19,"x_max":797,"o":"m -5 643 l -19 665 q 62 737 29 708 q 115 779 95 765 q 151 792 136 792 q 201 765 181 792 q 442 328 334 594 q 471 389 442 329 q 516 485 501 449 q 542 563 532 522 q 553 643 553 603 q 551 666 553 652 q 550 686 550 679 l 786 817 l 797 800 q 694 625 748 718 q 603 461 640 532 q 686 466 622 463 q 760 469 750 469 l 726 379 q 564 385 611 385 l 515 293 q 740 299 599 293 l 722 205 q 609 211 719 205 q 483 217 498 217 q 469 128 476 190 q 480 46 475 72 l 319 -82 q 325 65 325 -9 q 310 217 325 171 q 28 205 202 217 l 46 299 q 242 290 46 299 q 276 293 258 293 q 242 357 251 341 q 222 382 233 372 l 176 382 q 100 380 153 382 q 28 379 47 379 l 43 469 l 176 461 q 123 544 161 489 q 62 621 84 600 q 14 649 35 649 q -5 643 5 649 z "},"µ":{"ha":817,"x_min":-79,"x_max":760,"o":"m 105 600 l 282 600 l 217 293 q 208 240 214 276 q 201 185 202 205 q 274 103 203 106 q 407 262 371 103 l 478 600 l 651 600 l 572 236 q 561 157 566 203 q 608 100 565 100 q 660 120 643 100 q 693 179 676 140 q 722 228 710 217 q 740 239 728 239 q 760 201 760 239 q 733 96 760 145 q 659 16 705 46 q 558 -14 613 -14 q 471 18 506 -14 q 436 122 436 51 q 366 18 405 50 q 274 -14 327 -14 q 198 1 227 -14 q 150 50 168 16 q 122 144 132 84 q 106 -4 121 134 q 80 -190 91 -142 q 51 -263 70 -239 q -3 -288 32 -287 q -79 -205 -79 -288 q -71 -146 -79 -179 q -18 39 -42 -46 q 22 194 6 125 q 57 349 39 263 q 105 600 74 435 z "},"ª":{"ha":600,"x_min":11,"x_max":612,"o":"m 483 518 q 217 746 386 746 q 156 733 179 746 q 133 703 133 721 q 178 651 138 673 q 268 626 218 628 q 347 646 316 631 l 364 629 q 254 545 300 573 q 157 518 208 518 q 87 533 122 518 q 32 573 53 549 q 11 621 11 597 q 37 690 11 651 q 128 765 63 729 q 301 817 194 801 q 246 888 278 856 q 179 920 213 920 q 142 908 168 920 l 125 925 q 240 1003 200 980 q 304 1025 279 1025 q 364 987 331 1025 q 495 814 447 893 q 612 600 543 734 l 483 518 z "},"º":{"ha":543,"x_min":22,"x_max":515,"o":"m 193 893 q 165 806 170 859 q 190 719 166 762 q 248 650 213 676 q 318 624 283 624 q 336 626 325 624 q 388 714 388 638 q 362 811 388 761 q 289 896 337 862 q 179 930 242 930 q 131 925 161 930 l 125 944 q 319 1025 230 1025 q 427 990 384 1025 q 492 909 471 954 q 512 839 512 864 q 515 810 515 829 q 458 671 515 745 q 315 546 401 598 q 217 515 271 520 q 86 576 138 517 q 22 714 35 634 q 60 805 24 760 q 176 906 95 850 l 193 893 z "},"æ":{"ha":1142,"x_min":14,"x_max":1087,"o":"m 794 -17 q 686 19 732 -15 q 585 126 641 53 q 499 235 530 200 q 418 290 468 269 q 299 315 355 315 q 212 294 245 315 q 179 242 179 274 q 240 172 188 201 q 358 142 293 144 q 464 165 432 147 l 483 142 q 342 27 410 68 q 205 -17 275 -15 q 112 6 156 -17 q 41 64 67 28 q 14 136 14 99 q 50 234 14 178 q 176 341 86 290 q 410 413 265 392 q 236 555 320 555 q 188 543 215 555 l 168 567 q 264 637 204 592 q 350 698 324 683 q 399 714 377 714 q 483 665 433 714 q 592 507 506 640 q 666 588 617 541 q 780 674 714 635 q 911 714 847 714 q 1001 692 961 712 q 1063 639 1040 671 q 1085 572 1085 607 q 1076 535 1085 551 q 1033 486 1064 514 q 965 431 1002 459 q 863 363 927 404 q 786 313 799 321 l 768 342 q 855 415 828 384 q 882 472 882 445 q 866 520 882 498 q 824 556 849 543 q 773 569 798 569 q 709 541 734 569 q 681 455 683 513 q 718 309 681 377 q 818 199 755 240 q 950 157 880 158 q 1067 190 1016 161 l 1087 160 q 1040 118 1080 155 q 966 54 1001 81 q 886 5 932 26 q 794 -17 840 -17 z "},"ø":{"ha":722,"x_min":32,"x_max":689,"o":"m 469 445 q 382 317 425 384 q 299 188 338 249 q 355 149 320 165 q 424 133 389 133 q 497 174 474 138 q 521 265 521 210 q 506 363 521 315 q 469 445 491 412 m 188 17 q 154 -57 166 -15 l 35 -74 l 125 62 q 57 164 80 117 q 32 265 34 211 q 35 299 35 279 q 91 421 42 369 q 233 540 140 473 l 256 518 q 211 385 216 462 q 253 250 214 323 q 424 502 374 425 q 351 561 396 538 q 256 583 307 583 q 174 567 215 583 l 165 594 q 219 631 191 612 q 283 670 247 650 q 356 702 319 690 q 429 714 393 714 q 540 678 493 714 q 567 754 555 706 l 689 768 q 635 690 666 738 q 597 632 604 642 q 686 390 686 532 q 615 208 682 302 q 436 38 548 115 q 285 -14 358 -14 q 188 17 234 -14 z "},"¿":{"ha":665,"x_min":43,"x_max":692,"o":"m 247 922 q 301 963 265 934 q 364 1009 336 992 q 418 1025 391 1025 q 464 1009 441 1025 q 501 968 487 993 q 515 920 515 943 q 496 869 515 892 q 439 822 476 846 q 361 771 402 797 q 328 859 356 816 q 247 922 300 902 m 426 720 l 464 672 q 325 541 385 618 q 265 376 265 464 q 268 342 265 364 q 351 197 286 247 q 510 146 417 148 q 667 179 594 150 l 692 146 q 605 78 670 131 q 494 3 541 25 q 379 -19 446 -19 q 250 5 311 -17 q 143 65 189 27 q 70 153 97 102 q 43 261 44 204 q 88 417 43 342 q 197 548 133 491 q 321 647 261 606 q 426 720 380 688 z "},"¡":{"ha":421,"x_min":89,"x_max":364,"o":"m 313 760 q 334 478 321 630 q 364 154 347 326 l 122 -17 q 144 646 141 367 l 313 760 m 89 928 q 193 1007 155 983 q 261 1030 230 1030 q 306 1014 283 1030 q 343 972 329 998 q 358 925 358 947 q 319 852 358 887 q 203 773 280 818 q 89 928 179 887 z "},"¬":{"ha":1156,"x_min":171,"x_max":985,"o":"m 171 453 l 171 586 l 985 586 l 985 247 l 851 247 l 851 453 l 171 453 z "},"ƒ":{"ha":646,"x_min":-182,"x_max":811,"o":"m -22 8 q 95 -85 44 -85 q 149 -43 134 -85 q 174 56 162 -15 q 207 257 187 126 q 236 432 227 388 l 40 432 l 188 546 l 256 546 q 315 684 273 625 q 411 785 357 743 q 546 877 466 828 q 640 906 594 906 q 713 888 680 906 q 769 848 745 870 q 811 808 792 827 l 654 678 q 526 771 586 771 q 472 717 488 771 q 442 549 452 643 l 654 555 l 524 436 l 424 432 q 388 249 407 361 q 351 81 369 137 q 290 -28 334 25 q 160 -139 247 -81 q 109 -176 133 -158 q 55 -206 84 -193 q -5 -219 26 -219 q -182 -122 -92 -219 l -22 8 z "},"«":{"ha":651,"x_min":38,"x_max":608,"o":"m 453 139 q 359 249 387 209 q 331 336 331 289 q 356 398 331 365 q 419 460 382 430 q 508 527 456 490 q 575 575 561 564 l 608 535 q 517 444 542 473 q 492 382 493 414 q 518 320 493 355 q 600 225 543 285 l 453 139 m 160 139 q 93 215 113 191 q 56 270 73 238 q 38 333 39 301 q 80 415 38 372 q 183 502 122 459 q 285 575 243 546 l 318 535 q 225 443 250 472 q 199 382 200 414 q 225 320 201 354 q 307 225 250 285 l 160 139 z "},"»":{"ha":651,"x_min":40,"x_max":610,"o":"m 199 575 q 265 499 242 527 q 303 440 288 471 q 319 379 319 410 q 277 297 319 341 q 174 210 235 253 q 74 139 113 166 l 40 182 q 130 271 105 241 q 154 331 154 301 q 130 395 154 360 q 48 489 106 430 l 199 575 m 489 575 q 610 379 608 461 q 568 298 610 341 q 468 213 526 255 q 364 139 409 171 l 333 182 q 424 271 400 243 q 447 328 447 299 q 423 393 447 358 q 342 489 398 429 l 489 575 z "},"…":{"ha":1389,"x_min":92,"x_max":1289,"o":"m 364 89 q 315 51 353 82 q 248 3 277 19 q 190 -14 219 -14 q 125 18 151 -14 q 92 92 99 50 q 130 162 94 132 q 247 242 165 192 q 364 89 274 125 m 825 89 q 775 50 811 80 q 710 3 739 20 q 651 -14 680 -14 q 586 18 612 -14 q 553 92 561 50 q 566 132 554 113 q 599 168 579 152 q 648 205 618 185 q 708 244 677 224 q 825 89 732 125 m 1289 89 q 1241 51 1277 81 q 1174 3 1204 21 q 1115 -14 1144 -14 q 1051 18 1078 -14 q 1017 89 1024 49 q 1034 138 1018 116 q 1074 179 1051 161 q 1130 216 1098 196 q 1172 244 1162 236 q 1289 89 1194 127 z "},"À":{"ha":1010,"x_min":-68,"x_max":1047,"o":"m -68 -17 q 76 246 12 121 q 194 493 141 372 q 286 722 247 614 q 358 933 326 830 l 540 1019 l 581 1007 q 630 858 596 954 q 714 637 664 762 q 818 401 765 511 q 922 217 871 290 q 1007 139 965 142 q 1030 146 1019 144 l 1047 114 q 978 69 1029 104 q 893 14 927 34 q 840 -5 860 -5 q 780 41 817 -5 q 709 146 743 88 q 649 256 675 204 q 410 250 584 256 q 236 256 283 256 q 199 92 207 179 l -68 -17 m 282 382 q 360 379 302 380 q 445 376 418 377 q 592 379 510 379 q 439 773 512 563 q 384 643 407 699 q 335 522 360 587 q 282 382 309 457 m 342 1167 l 396 1305 q 589 1158 487 1219 l 557 1067 q 478 1093 512 1080 q 422 1119 445 1107 q 372 1148 399 1131 q 342 1167 345 1165 z "},"Ã":{"ha":1010,"x_min":-68,"x_max":1047,"o":"m -68 -17 q 76 246 12 121 q 194 493 141 372 q 286 722 247 614 q 358 933 326 830 l 540 1019 l 581 1007 q 630 858 596 954 q 714 637 664 762 q 818 401 765 511 q 922 217 871 290 q 1007 139 965 142 q 1030 146 1019 144 l 1047 114 q 978 69 1029 104 q 893 14 927 34 q 840 -5 860 -5 q 780 41 817 -5 q 709 146 743 88 q 649 256 675 204 q 410 250 584 256 q 236 256 283 256 q 199 92 207 179 l -68 -17 m 282 382 q 360 379 302 380 q 445 376 418 377 q 592 379 510 379 q 439 773 512 563 q 384 643 407 699 q 335 522 360 587 q 282 382 309 457 m 321 1099 l 244 1183 q 401 1272 345 1272 q 445 1261 424 1272 q 486 1238 466 1250 q 529 1226 507 1226 q 641 1275 569 1226 l 706 1200 q 554 1101 623 1106 q 518 1106 533 1101 q 484 1121 502 1112 q 452 1135 467 1130 q 421 1140 438 1140 q 321 1099 380 1140 z "},"Õ":{"ha":1039,"x_min":57,"x_max":1001,"o":"m 336 746 q 268 543 273 655 q 301 390 269 465 q 382 256 332 315 q 489 164 432 197 q 597 131 547 131 q 698 174 657 136 q 759 273 739 212 q 779 407 779 334 q 736 627 779 518 q 608 806 692 736 q 410 877 524 877 q 293 857 350 877 l 268 890 q 603 1017 446 1017 q 815 948 724 1017 q 953 774 905 880 q 1001 564 1001 668 q 947 373 997 475 q 813 182 897 271 q 627 38 729 92 q 424 -17 525 -17 q 278 22 346 -14 q 161 116 210 58 q 84 247 111 174 q 57 394 57 320 q 60 435 57 407 q 98 562 67 505 q 178 666 129 618 q 310 777 228 715 l 336 746 m 370 1096 l 293 1181 q 450 1270 393 1270 q 493 1258 472 1270 q 535 1235 514 1247 q 578 1224 555 1224 q 689 1272 617 1224 l 754 1197 q 603 1099 671 1103 q 566 1104 582 1099 q 533 1118 550 1109 q 501 1132 515 1127 q 469 1138 487 1138 q 370 1096 429 1138 z "},"Œ":{"ha":1380,"x_min":58,"x_max":1406,"o":"m 694 1007 q 933 985 782 989 q 1162 996 1011 986 q 1367 1007 1312 1005 q 1307 951 1357 999 q 1214 873 1257 904 q 1133 833 1172 842 q 976 825 1108 830 q 879 828 942 828 l 879 606 q 1264 618 1061 606 q 1212 565 1255 611 q 1137 490 1170 518 q 1076 453 1105 461 q 925 436 1031 441 q 877 439 908 439 l 877 179 q 979 175 921 177 q 1090 171 1037 173 q 1406 190 1245 175 l 1232 0 q 887 11 1074 11 q 766 10 843 11 q 657 8 690 8 l 665 60 q 544 5 612 26 q 418 -17 476 -17 q 273 22 339 -14 q 158 116 206 57 q 84 249 110 175 q 58 397 58 322 q 60 436 58 424 q 310 777 80 621 l 336 746 q 271 546 275 662 q 314 362 273 457 q 430 202 356 267 q 594 133 504 137 q 672 157 646 138 l 672 624 q 600 821 670 765 q 426 877 529 877 q 290 857 355 877 l 268 890 q 600 1014 448 1014 q 694 1007 658 1014 z "},"œ":{"ha":1142,"x_min":35,"x_max":1087,"o":"m 561 146 q 431 35 504 84 q 293 -14 359 -14 q 167 27 226 -14 q 72 133 108 67 q 35 268 36 199 q 38 295 36 278 q 40 319 39 312 q 102 430 52 380 q 233 540 152 481 l 258 518 q 219 390 224 466 q 252 268 221 327 q 332 172 283 209 q 429 136 381 136 q 494 173 472 138 q 515 261 515 207 q 482 402 515 328 q 385 526 448 476 q 239 575 322 575 q 174 567 207 575 l 165 594 q 315 688 258 662 q 429 714 371 714 q 643 567 561 711 q 920 711 791 711 q 1039 667 994 711 q 1085 572 1085 624 q 1074 529 1085 544 q 1025 473 1054 499 q 963 423 996 446 q 879 369 930 400 q 786 313 828 338 l 768 342 q 882 478 882 414 q 864 523 882 502 q 820 557 846 545 q 771 569 794 569 q 709 543 734 569 q 681 461 684 516 q 719 310 681 379 q 819 199 756 240 q 953 157 882 158 q 1067 190 1012 161 l 1087 160 q 1011 90 1054 129 q 916 19 968 51 q 814 -14 864 -13 q 671 31 729 -14 q 561 146 613 76 z "},"–":{"ha":694,"x_min":0,"x_max":694,"o":"m 0 401 l 694 401 l 694 296 l 0 296 l 0 401 z "},"—":{"ha":1389,"x_min":0,"x_max":1389,"o":"m 0 296 l 0 401 l 1386 401 l 1389 401 l 1389 296 l 3 296 l 0 296 z "},"“":{"ha":651,"x_min":35,"x_max":543,"o":"m 242 1030 l 265 990 q 203 908 205 955 q 274 800 208 854 l 125 714 q 35 857 38 801 q 73 932 40 901 q 152 986 106 963 q 242 1030 199 1009 m 510 1030 l 535 990 q 472 906 475 951 q 543 800 477 855 l 393 714 q 307 857 310 802 q 344 931 312 900 q 420 985 375 962 q 510 1030 465 1008 z "},"”":{"ha":651,"x_min":105,"x_max":612,"o":"m 410 714 l 385 757 q 445 833 445 797 q 375 944 445 880 l 526 1030 q 592 950 572 978 q 612 887 612 922 q 537 786 612 832 l 410 714 m 139 714 l 114 757 q 174 833 174 790 q 105 944 174 886 l 256 1030 q 321 953 301 982 q 342 887 342 924 q 268 786 342 832 l 139 714 z "},"‘":{"ha":379,"x_min":35,"x_max":274,"o":"m 242 1030 l 265 990 q 203 908 205 955 q 274 800 208 854 l 125 714 q 35 857 38 801 q 73 932 40 901 q 152 986 106 963 q 242 1030 199 1009 z "},"’":{"ha":379,"x_min":105,"x_max":342,"o":"m 139 714 l 114 757 q 174 833 174 790 q 105 944 174 886 l 256 1030 q 322 949 301 978 q 342 885 342 920 q 265 783 342 828 l 139 714 z "},"ÿ":{"ha":882,"x_min":-5,"x_max":786,"o":"m 404 256 q 473 292 432 256 q 558 391 514 329 q 646 534 602 454 q 722 697 689 614 l 779 697 q 777 475 779 558 q 782 6 780 139 q 786 -262 783 -126 l 575 -322 q 589 162 589 -23 q 586 313 589 274 q 410 74 487 170 q 288 -14 347 -14 q 219 35 247 -14 q 191 122 204 62 q 159 288 178 181 q 128 442 139 396 q 96 526 112 503 q 60 550 81 550 q 14 535 41 550 l -5 567 q 95 633 36 592 q 185 693 154 675 q 239 711 216 711 q 304 626 289 711 q 322 499 305 620 q 357 319 339 379 q 404 256 375 258 m 746 885 q 691 841 721 864 q 634 803 662 818 q 578 786 606 787 q 490 863 523 791 l 642 976 q 746 885 690 908 m 455 885 q 402 841 431 864 q 345 803 373 818 q 290 786 318 787 q 200 863 233 791 l 353 976 q 455 885 389 915 z "},"¤":{"ha":840,"x_min":46,"x_max":797,"o":"m 117 225 l 46 299 l 185 436 q 131 597 135 508 q 185 765 135 696 l 46 903 l 117 974 l 256 839 q 418 887 334 887 q 589 839 515 887 l 726 974 l 797 903 l 660 765 q 711 597 711 683 q 660 436 711 517 l 797 299 l 726 225 l 589 364 q 424 313 520 317 q 256 364 328 317 l 117 225 m 424 786 q 329 761 373 786 q 261 693 286 736 q 236 600 236 650 q 261 507 236 549 q 329 440 286 464 q 424 415 372 415 q 517 440 474 415 q 585 507 559 464 q 610 600 610 549 q 585 693 610 650 q 517 761 559 736 q 424 786 474 786 z "},"‹":{"ha":358,"x_min":38,"x_max":318,"o":"m 160 139 q 93 215 113 191 q 56 270 73 238 q 38 333 39 301 q 80 415 38 372 q 183 502 122 459 q 285 575 243 546 l 318 535 q 225 443 250 472 q 199 382 200 414 q 225 320 201 354 q 307 225 250 285 l 160 139 z "},"›":{"ha":358,"x_min":40,"x_max":319,"o":"m 199 575 q 288 470 257 514 q 319 382 318 427 q 278 299 319 343 q 177 213 236 255 q 74 139 119 171 l 40 182 q 131 271 107 243 q 154 328 154 299 q 131 393 154 358 q 52 489 108 428 l 199 575 z "},"":{"ha":974,"x_min":-25,"x_max":879,"o":"m 375 567 q 401 125 375 357 l 190 -17 q 181 201 185 109 q 176 389 178 293 q 174 564 174 484 l -25 564 l 122 717 l 174 714 q 222 917 177 855 q 326 1031 264 975 q 458 1123 389 1087 q 583 1158 526 1158 q 670 1142 626 1157 q 762 1090 714 1127 q 849 990 809 1053 l 654 863 q 608 941 641 903 q 534 1002 575 979 q 455 1025 493 1025 q 403 1003 421 1025 q 377 950 384 982 q 369 882 370 919 q 367 817 367 845 q 372 717 372 746 q 443 714 407 715 q 498 711 479 712 q 634 714 558 711 q 740 717 710 717 q 840 697 811 717 q 873 618 870 677 q 875 563 873 603 q 877 486 877 523 l 877 404 l 877 258 q 879 111 879 208 l 672 -17 q 675 279 675 97 q 672 483 675 450 q 661 538 669 521 q 627 562 652 555 q 543 569 601 569 q 471 568 526 569 q 375 567 415 567 z "},"":{"ha":971,"x_min":-25,"x_max":877,"o":"m 331 1033 q 466 1127 404 1098 q 592 1156 529 1156 q 716 1132 651 1156 q 860 1064 781 1109 q 857 908 860 963 q 864 512 859 693 q 877 133 868 331 l 660 -17 q 664 100 662 27 q 668 259 666 172 q 671 438 670 347 q 672 615 672 530 q 660 928 672 880 q 588 985 651 955 q 455 1022 525 1016 q 388 968 405 1022 q 367 822 370 914 q 372 717 372 736 l 581 724 l 455 569 l 375 569 q 382 348 375 453 q 401 125 388 243 l 190 -17 q 186 116 189 30 q 180 261 182 201 q 176 411 178 321 q 174 564 174 500 l -25 564 l 119 714 l 174 714 q 197 869 174 808 q 248 959 221 930 q 331 1033 275 987 z "},"‡":{"ha":694,"x_min":14,"x_max":711,"o":"m 14 564 l 122 720 q 200 715 145 718 q 290 711 255 711 q 279 914 285 844 l 467 1050 q 435 711 441 891 q 711 743 589 711 l 603 589 q 435 600 527 600 q 429 413 435 537 q 432 345 432 388 q 711 379 559 345 l 603 219 q 517 231 574 227 q 432 236 460 236 q 429 219 432 228 q 436 121 430 199 q 442 29 442 43 l 256 -103 q 288 231 274 4 l 244 231 q 121 220 188 231 q 14 199 54 210 l 122 356 q 191 348 133 352 q 288 345 250 345 l 288 475 l 288 600 q 14 564 109 594 z "},"·":{"ha":820,"x_min":62,"x_max":315,"o":"m 299 458 q 315 399 315 433 q 269 299 315 341 q 162 250 223 257 q 62 350 76 258 q 87 422 65 388 q 142 475 108 455 q 214 496 177 496 q 299 458 273 496 z "},"„":{"ha":651,"x_min":105,"x_max":612,"o":"m 376 154 l 526 244 q 612 95 612 153 q 580 33 612 63 q 480 -36 548 3 q 410 -76 413 -74 l 385 -32 q 445 46 445 0 q 376 154 445 95 m 105 154 l 256 244 q 345 95 345 151 q 325 45 343 66 q 266 -4 308 23 q 139 -76 224 -31 l 114 -32 q 174 46 174 -1 q 105 154 174 95 z "},"‰":{"ha":1815,"x_min":52,"x_max":1753,"o":"m 1411 372 q 1375 279 1379 336 q 1400 186 1376 232 q 1461 112 1424 141 q 1533 83 1497 83 q 1563 89 1549 83 q 1608 136 1592 99 q 1625 222 1625 173 q 1605 325 1625 274 q 1543 407 1584 375 q 1443 439 1501 439 q 1389 432 1421 439 l 1364 467 q 1551 529 1463 529 q 1658 499 1613 529 q 1728 418 1704 469 q 1753 307 1753 367 q 1711 155 1753 230 q 1598 33 1669 81 q 1451 -14 1528 -14 q 1349 15 1397 -14 q 1273 93 1302 44 q 1244 196 1244 141 q 1282 310 1246 256 q 1389 404 1317 365 l 1411 372 m 846 375 q 814 279 818 332 q 839 187 815 232 q 898 113 862 142 q 971 85 935 85 q 999 89 986 85 q 1045 138 1028 101 q 1061 222 1061 174 q 1041 326 1061 276 q 979 407 1020 376 q 879 439 938 439 q 825 432 857 439 l 800 467 q 982 529 899 529 q 1090 498 1044 529 q 1161 416 1137 468 q 1186 304 1186 364 q 1145 153 1186 227 q 1034 33 1103 79 q 887 -14 964 -14 q 786 15 833 -14 q 711 93 739 44 q 683 196 683 141 q 825 404 688 327 l 846 375 m 358 -62 l 233 -82 q 423 172 337 56 q 593 404 509 289 q 763 643 677 519 q 914 865 849 766 l 1033 885 q 791 558 910 722 q 558 233 672 395 q 358 -62 445 71 m 217 665 q 188 564 192 623 q 211 470 189 516 q 269 394 234 424 q 342 365 304 365 q 367 370 355 365 q 414 414 396 377 q 432 502 432 451 q 412 607 432 556 q 352 691 392 658 q 253 724 311 724 q 201 717 231 724 l 165 746 q 353 811 262 811 q 461 780 414 811 q 533 698 508 750 q 558 586 558 647 q 516 435 558 506 q 404 319 474 364 q 256 265 334 273 q 155 296 202 267 q 80 374 107 326 q 52 475 52 422 q 188 686 56 604 l 217 665 z "},"Â":{"ha":1010,"x_min":-68,"x_max":1047,"o":"m -68 -17 q 76 246 12 121 q 194 493 141 372 q 286 722 247 614 q 358 933 326 830 l 540 1019 l 581 1007 q 630 858 596 954 q 714 637 664 762 q 818 401 765 511 q 922 217 871 290 q 1007 139 965 142 q 1030 146 1019 144 l 1047 114 q 978 69 1029 104 q 893 14 927 34 q 840 -5 860 -5 q 780 41 817 -5 q 709 146 743 88 q 649 256 675 204 q 410 250 584 256 q 236 256 283 256 q 199 92 207 179 l -68 -17 m 282 382 q 360 379 302 380 q 445 376 418 377 q 592 379 510 379 q 439 773 512 563 q 384 643 407 699 q 335 522 360 587 q 282 382 309 457 m 681 1146 l 621 1072 q 579 1108 597 1087 q 551 1145 561 1128 q 534 1182 542 1162 q 521 1215 526 1201 q 375 1075 470 1132 l 304 1135 q 403 1214 365 1177 q 464 1303 440 1250 q 518 1300 500 1303 q 562 1303 533 1301 q 606 1305 591 1304 q 618 1225 606 1256 q 681 1146 631 1194 z "},"Ê":{"ha":920,"x_min":22,"x_max":942,"o":"m 196 8 q 217 370 217 152 l 217 442 l 29 453 l 217 600 l 217 840 l 22 860 l 233 1004 q 521 993 416 993 q 906 1007 648 993 q 846 951 895 998 q 761 876 798 904 q 694 839 725 847 q 550 825 665 830 q 418 830 447 830 l 418 606 l 800 615 q 754 566 794 610 q 681 493 714 522 q 621 455 648 464 q 475 439 588 445 q 415 442 453 442 l 415 179 q 519 175 461 177 q 629 171 577 173 q 942 188 742 174 l 773 3 q 421 11 561 11 q 311 10 385 11 q 196 8 237 8 m 697 1146 l 637 1072 q 595 1108 613 1087 q 568 1145 577 1128 q 551 1182 558 1162 q 537 1215 543 1201 q 392 1075 486 1132 l 321 1135 q 419 1214 382 1177 q 480 1303 457 1250 q 535 1300 517 1303 q 579 1303 550 1301 q 622 1305 608 1304 q 635 1225 622 1256 q 697 1146 648 1194 z "},"Á":{"ha":1010,"x_min":-68,"x_max":1047,"o":"m -68 -17 q 76 246 12 121 q 194 493 141 372 q 286 722 247 614 q 358 933 326 830 l 540 1019 l 581 1007 q 630 858 596 954 q 714 637 664 762 q 818 401 765 511 q 922 217 871 290 q 1007 139 965 142 q 1030 146 1019 144 l 1047 114 q 978 69 1029 104 q 893 14 927 34 q 840 -5 860 -5 q 780 41 817 -5 q 709 146 743 88 q 649 256 675 204 q 410 250 584 256 q 236 256 283 256 q 199 92 207 179 l -68 -17 m 282 382 q 360 379 302 380 q 445 376 418 377 q 592 379 510 379 q 439 773 512 563 q 384 643 407 699 q 335 522 360 587 q 282 382 309 457 m 626 1181 q 572 1145 603 1165 q 505 1105 542 1125 q 424 1069 468 1085 l 389 1153 q 551 1305 477 1214 l 626 1181 z "},"Ë":{"ha":920,"x_min":22,"x_max":942,"o":"m 196 8 q 217 370 217 152 l 217 442 l 29 453 l 217 600 l 217 840 l 22 860 l 233 1004 q 521 993 416 993 q 906 1007 648 993 q 846 951 895 998 q 761 876 798 904 q 694 839 725 847 q 550 825 665 830 q 418 830 447 830 l 418 606 l 800 615 q 754 566 794 610 q 681 493 714 522 q 621 455 648 464 q 475 439 588 445 q 415 442 453 442 l 415 179 q 519 175 461 177 q 629 171 577 173 q 942 188 742 174 l 773 3 q 421 11 561 11 q 311 10 385 11 q 196 8 237 8 m 800 1186 q 745 1143 775 1166 q 688 1104 716 1119 q 632 1087 660 1089 q 545 1164 577 1093 l 696 1278 q 800 1186 744 1209 m 510 1186 q 456 1143 485 1166 q 400 1104 427 1119 q 345 1087 372 1089 q 254 1164 287 1093 l 407 1278 q 510 1186 443 1217 z "},"È":{"ha":920,"x_min":22,"x_max":942,"o":"m 196 8 q 217 370 217 152 l 217 442 l 29 453 l 217 600 l 217 840 l 22 860 l 233 1004 q 521 993 416 993 q 906 1007 648 993 q 846 951 895 998 q 761 876 798 904 q 694 839 725 847 q 550 825 665 830 q 418 830 447 830 l 418 606 l 800 615 q 754 566 794 610 q 681 493 714 522 q 621 455 648 464 q 475 439 588 445 q 415 442 453 442 l 415 179 q 519 175 461 177 q 629 171 577 173 q 942 188 742 174 l 773 3 q 421 11 561 11 q 311 10 385 11 q 196 8 237 8 m 362 1170 l 417 1308 q 610 1161 508 1222 l 578 1069 q 499 1096 533 1083 q 442 1121 465 1109 q 392 1150 419 1133 q 362 1170 366 1167 z "},"Í":{"ha":455,"x_min":52,"x_max":376,"o":"m 154 -29 q 159 104 155 -7 q 166 292 164 216 q 168 426 168 369 q 154 738 168 567 q 141 830 152 804 q 108 857 130 857 q 68 843 102 857 l 52 873 q 154 942 87 895 q 254 1010 220 990 q 313 1030 288 1030 q 352 1003 339 1030 q 364 908 364 975 l 367 108 l 154 -29 m 376 1178 q 322 1142 353 1162 q 255 1103 292 1122 q 174 1067 218 1083 l 139 1150 q 301 1303 227 1211 l 376 1178 z "},"Î":{"ha":455,"x_min":52,"x_max":433,"o":"m 154 -29 q 159 104 155 -7 q 166 292 164 216 q 168 426 168 369 q 154 738 168 567 q 141 830 152 804 q 108 857 130 857 q 68 843 102 857 l 52 873 q 154 942 87 895 q 254 1010 220 990 q 313 1030 288 1030 q 352 1003 339 1030 q 364 908 364 975 l 367 108 l 154 -29 m 433 1143 l 374 1069 q 332 1105 350 1085 q 304 1142 314 1125 q 287 1179 295 1159 q 274 1213 279 1198 q 128 1072 222 1129 l 57 1132 q 155 1211 118 1175 q 217 1300 193 1247 q 271 1297 253 1300 q 315 1300 286 1299 q 358 1303 344 1301 q 371 1222 358 1253 q 433 1143 384 1191 z "},"Ï":{"ha":455,"x_min":-11,"x_max":535,"o":"m 154 -29 q 159 104 155 -7 q 166 292 164 216 q 168 426 168 369 q 154 738 168 567 q 141 830 152 804 q 108 857 130 857 q 68 843 102 857 l 52 873 q 154 942 87 895 q 254 1010 220 990 q 313 1030 288 1030 q 352 1003 339 1030 q 364 908 364 975 l 367 108 l 154 -29 m 535 1186 q 480 1143 510 1166 q 423 1104 451 1119 q 367 1087 395 1089 q 279 1164 312 1093 l 431 1278 q 535 1186 479 1209 m 244 1186 q 191 1143 220 1166 q 134 1104 162 1119 q 79 1087 107 1089 q -11 1164 22 1093 l 142 1278 q 244 1186 178 1217 z "},"Ì":{"ha":455,"x_min":52,"x_max":367,"o":"m 154 -29 q 159 104 155 -7 q 166 292 164 216 q 168 426 168 369 q 154 738 168 567 q 141 830 152 804 q 108 857 130 857 q 68 843 102 857 l 52 873 q 154 942 87 895 q 254 1010 220 990 q 313 1030 288 1030 q 352 1003 339 1030 q 364 908 364 975 l 367 108 l 154 -29 m 92 1167 l 146 1305 q 339 1158 237 1219 l 307 1067 q 229 1093 262 1080 q 172 1119 195 1107 q 122 1148 149 1131 q 92 1167 95 1165 z "},"Ó":{"ha":1039,"x_min":57,"x_max":1001,"o":"m 336 746 q 268 543 273 655 q 301 390 269 465 q 382 256 332 315 q 489 164 432 197 q 597 131 547 131 q 698 174 657 136 q 759 273 739 212 q 779 407 779 334 q 736 627 779 518 q 608 806 692 736 q 410 877 524 877 q 293 857 350 877 l 268 890 q 603 1017 446 1017 q 815 948 724 1017 q 953 774 905 880 q 1001 564 1001 668 q 947 373 997 475 q 813 182 897 271 q 627 38 729 92 q 424 -17 525 -17 q 278 22 346 -14 q 161 116 210 58 q 84 247 111 174 q 57 394 57 320 q 60 435 57 407 q 98 562 67 505 q 178 666 129 618 q 310 777 228 715 l 336 746 m 669 1183 q 615 1148 646 1168 q 548 1108 585 1128 q 467 1072 511 1088 l 432 1156 q 594 1308 520 1217 l 669 1183 z "},"Ô":{"ha":1039,"x_min":57,"x_max":1001,"o":"m 336 746 q 268 543 273 655 q 301 390 269 465 q 382 256 332 315 q 489 164 432 197 q 597 131 547 131 q 698 174 657 136 q 759 273 739 212 q 779 407 779 334 q 736 627 779 518 q 608 806 692 736 q 410 877 524 877 q 293 857 350 877 l 268 890 q 603 1017 446 1017 q 815 948 724 1017 q 953 774 905 880 q 1001 564 1001 668 q 947 373 997 475 q 813 182 897 271 q 627 38 729 92 q 424 -17 525 -17 q 278 22 346 -14 q 161 116 210 58 q 84 247 111 174 q 57 394 57 320 q 60 435 57 407 q 98 562 67 505 q 178 666 129 618 q 310 777 228 715 l 336 746 m 724 1143 l 664 1069 q 622 1105 640 1085 q 594 1142 604 1125 q 577 1179 585 1159 q 564 1213 569 1198 q 418 1072 513 1129 l 347 1132 q 446 1211 408 1175 q 507 1300 483 1247 q 561 1297 543 1300 q 605 1300 576 1299 q 649 1303 634 1301 q 662 1222 649 1253 q 724 1143 674 1191 z "},"Ò":{"ha":1039,"x_min":57,"x_max":1001,"o":"m 336 746 q 268 543 273 655 q 301 390 269 465 q 382 256 332 315 q 489 164 432 197 q 597 131 547 131 q 698 174 657 136 q 759 273 739 212 q 779 407 779 334 q 736 627 779 518 q 608 806 692 736 q 410 877 524 877 q 293 857 350 877 l 268 890 q 603 1017 446 1017 q 815 948 724 1017 q 953 774 905 880 q 1001 564 1001 668 q 947 373 997 475 q 813 182 897 271 q 627 38 729 92 q 424 -17 525 -17 q 278 22 346 -14 q 161 116 210 58 q 84 247 111 174 q 57 394 57 320 q 60 435 57 407 q 98 562 67 505 q 178 666 129 618 q 310 777 228 715 l 336 746 m 385 1170 l 439 1308 q 632 1161 530 1222 l 600 1069 q 522 1096 555 1083 q 465 1121 488 1109 q 415 1150 442 1133 q 385 1170 388 1167 z "},"Ú":{"ha":1161,"x_min":54,"x_max":1204,"o":"m 304 1022 q 300 967 300 998 q 336 740 300 874 q 430 474 371 605 q 555 258 489 342 q 681 174 622 175 q 683 176 682 175 q 683 176 683 176 q 776 220 732 176 q 853 337 820 263 q 905 499 887 410 q 922 675 922 587 q 903 843 922 774 l 1204 1028 q 1121 709 1183 891 q 972 361 1058 527 q 790 85 886 195 q 606 -32 694 -25 q 457 35 534 -32 q 306 215 380 102 q 171 465 232 329 q 68 735 109 601 q 54 806 60 759 q 76 878 55 848 q 128 927 98 908 q 214 973 159 945 q 304 1022 269 1000 m 778 1181 q 724 1145 754 1165 q 656 1105 693 1125 q 575 1069 619 1085 l 540 1153 q 703 1305 628 1214 l 778 1181 z "},"Û":{"ha":1161,"x_min":54,"x_max":1204,"o":"m 304 1022 q 300 967 300 998 q 336 740 300 874 q 430 474 371 605 q 555 258 489 342 q 681 174 622 175 q 683 176 682 175 q 683 176 683 176 q 776 220 732 176 q 853 337 820 263 q 905 499 887 410 q 922 675 922 587 q 903 843 922 774 l 1204 1028 q 1121 709 1183 891 q 972 361 1058 527 q 790 85 886 195 q 606 -32 694 -25 q 457 35 534 -32 q 306 215 380 102 q 171 465 232 329 q 68 735 109 601 q 54 806 60 759 q 76 878 55 848 q 128 927 98 908 q 214 973 159 945 q 304 1022 269 1000 m 832 1143 l 772 1069 q 730 1105 748 1085 q 703 1142 712 1125 q 685 1179 693 1159 q 672 1213 677 1198 q 526 1072 621 1129 l 455 1132 q 554 1211 516 1175 q 615 1300 591 1247 q 669 1297 651 1300 q 713 1300 684 1299 q 757 1303 743 1301 q 770 1222 757 1253 q 832 1143 783 1191 z "},"Ù":{"ha":1161,"x_min":54,"x_max":1204,"o":"m 304 1022 q 300 967 300 998 q 336 740 300 874 q 430 474 371 605 q 555 258 489 342 q 681 174 622 175 q 683 176 682 175 q 683 176 683 176 q 776 220 732 176 q 853 337 820 263 q 905 499 887 410 q 922 675 922 587 q 903 843 922 774 l 1204 1028 q 1121 709 1183 891 q 972 361 1058 527 q 790 85 886 195 q 606 -32 694 -25 q 457 35 534 -32 q 306 215 380 102 q 171 465 232 329 q 68 735 109 601 q 54 806 60 759 q 76 878 55 848 q 128 927 98 908 q 214 973 159 945 q 304 1022 269 1000 m 493 1172 l 547 1311 q 740 1164 638 1225 l 708 1072 q 630 1099 664 1085 q 573 1124 596 1112 q 523 1153 550 1136 q 493 1172 496 1170 z "},"ı":{"ha":418,"x_min":8,"x_max":342,"o":"m 136 -17 q 137 78 136 15 q 139 188 139 141 q 132 404 139 314 q 114 512 126 494 q 65 537 101 537 q 14 524 43 537 l 8 555 q 105 625 36 574 q 209 696 174 676 q 268 717 244 717 q 328 632 316 717 q 339 333 339 564 q 342 111 342 261 l 136 -17 z "},"ˆ":{"ha":694,"x_min":176,"x_max":553,"o":"m 553 839 l 493 765 q 451 801 469 781 q 424 838 433 821 q 406 875 414 855 q 393 908 398 894 q 247 768 342 825 l 176 828 q 275 907 237 870 q 336 996 312 943 q 390 993 372 996 q 434 996 405 995 q 478 999 464 997 q 491 918 478 949 q 553 839 504 887 z "},"˜":{"ha":694,"x_min":119,"x_max":581,"o":"m 196 792 l 119 877 q 276 965 219 965 q 320 954 299 965 q 361 931 340 943 q 404 920 381 920 q 515 968 444 920 l 581 893 q 429 794 498 799 q 392 800 408 794 q 359 814 377 805 q 327 828 341 823 q 296 833 313 833 q 196 792 255 833 z "},"˘":{"ha":694,"x_min":239,"x_max":575,"o":"m 261 936 l 375 957 q 372 937 374 951 q 370 917 371 924 q 383 870 370 887 q 418 851 396 853 q 480 879 448 853 q 537 950 513 905 l 575 930 q 506 817 555 867 q 388 763 456 766 q 286 791 330 763 q 239 868 241 820 q 261 936 243 908 z "},"˚":{"ha":455,"x_min":347,"x_max":610,"o":"m 518 1272 q 587 1243 565 1271 q 610 1183 610 1216 q 592 1132 610 1160 q 540 1082 575 1103 q 453 1058 504 1061 q 375 1090 403 1060 q 347 1147 347 1120 q 375 1213 347 1184 q 443 1257 402 1241 q 518 1272 484 1272 m 436 1213 q 421 1170 421 1187 q 457 1130 422 1141 q 532 1118 491 1118 q 533 1132 532 1122 q 535 1144 535 1141 q 461 1213 535 1213 l 436 1213 z "},"¸":{"ha":694,"x_min":222,"x_max":493,"o":"m 222 -288 l 231 -258 q 348 -217 311 -240 q 385 -149 385 -193 q 333 -108 385 -113 q 294 -117 317 -112 q 271 -122 272 -122 q 288 11 282 -61 l 345 38 l 339 -43 q 375 -40 361 -43 q 493 -105 488 -45 q 415 -238 493 -201 q 222 -288 336 -274 z "}}}
